<svg width="40" height="40" viewBox="0 0 40 40" fill="none" xmlns="http://www.w3.org/2000/svg"><path d="M18.311 28.504l-4.951-1.65-1.451-.008-2.54 7.294c-.08.232.108.47.353.444l3.559-.372a.341.341 0 01.27.093l2.558 2.502a.336.336 0 00.551-.13l2.556-7.342-.905-.831z" fill="#979797"/><path d="M19.216 29.335l.517-1.483-7.31-2.486-.514 1.48a13.415 13.415 0 007.307 2.49zm1.938-.831l4.95-1.65 1.452-.008 2.54 7.294a.336.336 0 01-.353.444l-3.559-.372a.336.336 0 00-.27.093l-2.558 2.502a.336.336 0 01-.551-.13l-2.556-7.341.905-.832z" fill="#979797"/><path d="M20.249 29.335l-.517-1.483 7.31-2.486.514 1.48a13.415 13.415 0 01-7.307 2.49z" fill="#979797"/><path d="M19.733 26.846c-11.976 0-11.986-11.389-11.976-11.589.315-6.341 5.556-11.386 11.976-11.386 6.42 0 11.66 5.045 11.975 11.386.01.2 0 11.589-11.975 11.589z" fill="#2A0E66"/><path d="M19.733 26.643c-6.42 0-11.66-5.045-11.976-11.386-.01.2-.015.402-.015.604 0 6.622 5.369 11.99 11.99 11.99 6.623 0 11.991-5.367 11.991-11.99 0-.202-.005-.404-.015-.604-.315 6.341-5.556 11.386-11.975 11.386z" fill="#451AA1"/><path d="M29.179 15.861c0 4.045-4.23 8.866-9.446 8.866-5.217 0-9.446-5.086-9.446-8.866a9.444 9.444 0 019.446-9.445c5.014 0 9.115 3.906 9.427 8.841.013.2.019.401.019.604z" fill="#451AA2"/><path d="M19.733 24.099c-5.014 0-9.114-3.907-9.426-8.842a9.446 9.446 0 1018.852 0c-.311 4.935-4.412 8.842-9.426 8.842z" fill="#170934"/><path d="M19.826 14.445c.423 0 .8.095 1.131.284.331.184.588.442.77.776.182.334.273.72.273 1.158a2.3 2.3 0 01-.322 1.218 2.181 2.181 0 01-.906.825c-.383.196-.828.294-1.335.294a3.8 3.8 0 01-1.18-.186 3.126 3.126 0 01-.994-.52.653.653 0 01-.205-.227.726.726 0 01-.058-.304c0-.17.046-.314.137-.432a.434.434 0 01.35-.186.57.57 0 01.215.039c.065.02.15.059.253.117.26.158.497.282.712.374.214.085.448.127.701.127.397 0 .696-.091.897-.275.208-.183.312-.454.312-.815 0-.34-.107-.608-.322-.805-.208-.196-.49-.294-.848-.294-.22 0-.422.03-.604.088a2.49 2.49 0 00-.594.275.815.815 0 01-.41.118.605.605 0 01-.4-.138.503.503 0 01-.155-.382v-2.857c0-.23.061-.406.185-.53.123-.125.299-.187.526-.187h3.139c.48 0 .72.193.72.58 0 .392-.24.588-.72.588h-2.369v1.542c.312-.177.68-.265 1.101-.265z" fill="#fff"/></svg>