<svg width="40" height="40" viewBox="0 0 40 40" fill="none" xmlns="http://www.w3.org/2000/svg"><path d="M13.69 26.195l-1.27.061-2.46 7.067a.325.325 0 00.342.43l3.448-.36a.325.325 0 01.26.09l2.48 2.424c.17.167.456.1.534-.125l2.476-7.113-.73-.709-5.08-1.765z" fill="#FF4755"/><path d="M19.5 28.669l.5-1.438-7.08-2.407-.5 1.432a12.996 12.996 0 007.08 2.413z" fill="#FC2B3A"/><path d="M26.31 26.195l1.27.061 2.46 7.067a.325.325 0 01-.342.43l-3.448-.36a.325.325 0 00-.26.09l-2.48 2.424a.325.325 0 01-.534-.125L20.5 28.669l.73-.709 5.08-1.765z" fill="#FF4755"/><path d="M20.5 28.669L20 27.23l7.08-2.407.5 1.432a12.997 12.997 0 01-7.08 2.413z" fill="#FC2B3A"/><path d="M20 26.507c-11.615 0-11.61-11.283-11.6-11.477C8.703 8.887 13.781 4 20 4c6.22 0 11.297 4.887 11.602 11.03.01.194.014 11.477-11.601 11.477z" fill="#FFE27A"/><path d="M20 26.06c-6.219 0-11.296-4.886-11.601-11.03-.01.194-.015.39-.015.586 0 6.415 5.2 11.616 11.616 11.616 6.415 0 11.616-5.201 11.616-11.616 0-.197-.005-.392-.015-.586C31.296 21.174 26.22 26.06 20 26.06z" fill="#F9CF58"/><path d="M20 24.008c-9.133 0-9.145-8.98-9.133-9.174a9.151 9.151 0 0118.265 0c.012.194 0 9.174-9.132 9.174z" fill="#FFBA57"/><path d="M20 23.596c-4.857 0-8.83-3.785-9.132-8.566a9.15 9.15 0 1018.263 0c-.302 4.781-4.274 8.566-9.131 8.566z" fill="#FFAC3E"/><path d="M20.192 20c-.998 0-1.807-.405-1.807-.905V14.02s-1.082.543-2.376.217C15 13.983 15 13.329 15 13.329l2.229-1.885c.325-.275.916-.444 1.555-.444h1.408c.999 0 1.808.405 1.808.905v7.191c0 .5-.81.905-1.808.905z" fill="#FFE27A"/><path opacity=".4" d="M19.213 12.55c-.305.515-.954.739-1.496.482a1.147 1.147 0 01-.5-.455 1.15 1.15 0 00.385 1.564c.549.338 1.282.136 1.61-.418l.16-.27v-.86c0-.086-.115-.117-.159-.043z" fill="#F9CF58"/></svg>