<svg width="32" height="32" viewBox="0 0 32 32" fill="none" xmlns="http://www.w3.org/2000/svg"><path d="M14.899 22.29l-3.838-1.278-1.124-.007-1.968 5.654a.26.26 0 00.273.344L11 26.714a.26.26 0 01.209.073l1.983 1.939a.26.26 0 00.427-.1l1.98-5.69-.7-.645z" fill="#0083FD"/><path d="M15.6 22.935l.4-1.15-5.665-1.926-.398 1.146a10.396 10.396 0 005.663 1.93z" fill="#0072FC"/><path d="M17.101 22.29l3.838-1.278 1.125-.007 1.967 5.654a.26.26 0 01-.272.344L21 26.714a.26.26 0 00-.209.073l-1.982 1.939a.26.26 0 01-.428-.1l-1.98-5.69.7-.645z" fill="#0083FD"/><path d="M16.4 22.935l-.4-1.15 5.665-1.926.399 1.146a10.396 10.396 0 01-5.664 1.93z" fill="#0072FC"/><path d="M16 21.005c-9.28 0-9.288-8.825-9.28-8.98a9.293 9.293 0 0118.562 0c.007.155 0 8.98-9.281 8.98z" fill="#FF9838"/><path d="M16 20.849a9.293 9.293 0 01-9.28-8.825 9.293 9.293 0 1018.562 0A9.293 9.293 0 0116 20.849z" fill="#FF8709"/><path d="M23.32 12.493c0 3.135-3.277 6.87-7.32 6.87s-7.32-3.94-7.32-6.87a7.321 7.321 0 0114.641 0z" fill="#CE7430"/><path d="M16 18.877a7.32 7.32 0 01-7.305-6.853 7.32 7.32 0 1014.61 0A7.32 7.32 0 0116 18.877z" fill="#BC672E"/><path d="M16.01 16.841c-1.577 0-2.58-1.087-2.774-2.376-.017-.118-.023-.37-.023-.37a.92.92 0 011.778.337 1.02 1.02 0 002.037 0c0-.17-.041-.329-.114-.469 0 0-.07-.868-.856-.868-.788 0-.84-1.071-.84-1.071a.92.92 0 01.791-.452 1.02 1.02 0 000-2.037 1.02 1.02 0 00-1.018 1.019.92.92 0 11-1.841 0 2.863 2.863 0 012.86-2.86 2.863 2.863 0 012.859 2.86c0 .747-.289 1.429-.76 1.939.37.401.628.908.721 1.47 0 0 .003.31-.024.466-.228 1.341-1.22 2.412-2.797 2.412z" fill="#FFAA5C"/><path d="M16.01 12.476a.919.919 0 01-.792-.452.92.92 0 00.791 1.389c.393 0 .734.224.904.55a1.02 1.02 0 00-.904-1.487zm0 3.878a2.863 2.863 0 01-2.796-2.258.918.918 0 00-.064.336 2.863 2.863 0 002.86 2.86 2.863 2.863 0 002.82-3.328 2.863 2.863 0 01-2.82 2.39z" fill="#EA9957"/></svg>