<svg width="40" height="40" viewBox="0 0 40 40" fill="none" xmlns="http://www.w3.org/2000/svg"><path d="M18.311 28.504l-4.951-1.65-1.451-.008-2.54 7.294c-.08.232.108.47.353.444l3.559-.372a.341.341 0 01.27.093l2.558 2.502a.336.336 0 00.551-.13l2.556-7.342-.905-.831z" fill="#979797"/><path d="M19.216 29.335l.517-1.483-7.31-2.486-.514 1.48a13.415 13.415 0 007.307 2.49zm1.938-.831l4.95-1.65 1.452-.008 2.54 7.294a.336.336 0 01-.353.444l-3.559-.372a.336.336 0 00-.27.093l-2.558 2.502a.336.336 0 01-.551-.13l-2.556-7.341.905-.832z" fill="#979797"/><path d="M20.249 29.335l-.517-1.483 7.31-2.486.514 1.48a13.415 13.415 0 01-7.307 2.49z" fill="#979797"/><path d="M19.733 26.846c-11.976 0-11.986-11.389-11.976-11.589.315-6.341 5.556-11.386 11.976-11.386 6.42 0 11.66 5.045 11.975 11.386.01.2 0 11.589-11.975 11.589z" fill="#2A0E66"/><path d="M19.733 26.643c-6.42 0-11.66-5.045-11.976-11.386-.01.2-.015.402-.015.604 0 6.622 5.369 11.99 11.99 11.99 6.623 0 11.991-5.367 11.991-11.99 0-.202-.005-.404-.015-.604-.315 6.341-5.556 11.386-11.975 11.386z" fill="#451AA1"/><path d="M29.179 15.861c0 4.045-4.23 8.866-9.446 8.866-5.217 0-9.446-5.086-9.446-8.866a9.444 9.444 0 019.446-9.445c5.014 0 9.115 3.906 9.427 8.841.013.2.019.401.019.604z" fill="#451AA2"/><path d="M19.733 24.099c-5.014 0-9.114-3.907-9.426-8.842a9.446 9.446 0 1018.852 0c-.311 4.935-4.412 8.842-9.426 8.842z" fill="#170934"/><path d="M21.362 16.517c.425 0 .638.192.638.577 0 .39-.213.586-.638.586h-.323v.557c0 .248-.062.437-.184.568a.63.63 0 01-.48.195.629.629 0 01-.482-.195c-.122-.13-.183-.32-.183-.568v-.557h-2.124a.546.546 0 01-.429-.176.686.686 0 01-.157-.46c0-.182.055-.364.166-.547l2.605-4.165a.653.653 0 01.262-.244.67.67 0 01.332-.088.64.64 0 01.472.205c.134.13.201.313.201.548v3.764h.324zm-1.652 0v-2.151l-1.338 2.15h1.338z" fill="#fff"/></svg>