<svg width="40" height="40" viewBox="0 0 40 40" fill="none" xmlns="http://www.w3.org/2000/svg"><path d="M18.717 27.924l-5.159-1.783-1.138.116-2.46 7.066a.325.325 0 00.342.43l3.448-.36a.325.325 0 01.26.09l2.48 2.424c.17.167.456.1.534-.125l2.476-7.113-.783-.745z" fill="#98DB7C"/><path d="M19.5 28.669l.5-1.437-7.08-2.408-.5 1.433a12.996 12.996 0 007.08 2.412z" fill="#82D361"/><path d="M21.283 27.924l5.159-1.783 1.137.116 2.46 7.066a.325.325 0 01-.34.43l-3.449-.36a.325.325 0 00-.26.09l-2.48 2.424a.325.325 0 01-.534-.125L20.5 28.669l.783-.745z" fill="#98DB7C"/><path d="M20.5 28.669l-.5-1.437 7.08-2.408.5 1.433a12.997 12.997 0 01-7.08 2.412z" fill="#82D361"/><path d="M20.001 26.465C8.4 26.465 8.391 15.225 8.4 15.03 8.705 8.887 13.782 4 20 4c6.215 0 11.29 4.88 11.6 11.018.01.198 0 11.447-11.6 11.447z" fill="#E0E0E0"/><path d="M20 26.06c-6.219 0-11.296-4.886-11.601-11.03-.01.194-.015.39-.015.586 0 6.415 5.2 11.616 11.616 11.616 6.415 0 11.616-5.201 11.616-11.616 0-.197-.005-.392-.015-.586C31.296 21.174 26.22 26.06 20 26.06z" fill="#CECECE"/><path d="M20 24.04c-9.15 0-9.145-8.816-9.132-9.01a9.151 9.151 0 0118.264 0c.012.194 0 9.01-9.132 9.01z" fill="#9E9E9E"/><path d="M20 23.596c-4.857 0-8.83-3.785-9.132-8.566a9.15 9.15 0 1018.263 0c-.302 4.781-4.274 8.566-9.131 8.566z" fill="#898989"/><path d="M22.634 21.051h-5.245c-.635 0-1.126-1.106-1.078-1.358a4.162 4.162 0 01.911-1.915l3.69-4.362a.916.916 0 00.137-.973.853.853 0 00-.81-.525c-.686 0-1.244.559-1.244 1.245a1.15 1.15 0 01-2.3 0A3.55 3.55 0 0120.36 9.62a3.151 3.151 0 012.792 1.89 3.202 3.202 0 01-.483 3.392l-3.69 4.362a1.883 1.883 0 00-.04.049h3.695c.421 0 .79.226.99.564.102.172-.355 1.174-.99 1.174z" fill="#E0E0E0"/><path d="M22.634 20.443H17.39a1.15 1.15 0 01-1.077-.75c-.048.253-.073.51-.073.77 0 .636.515 1.15 1.15 1.15h5.245a1.15 1.15 0 00.99-1.735 1.151 1.151 0 01-.99.565z" fill="#CECECE"/></svg>