<svg width="40" height="40" viewBox="0 0 40 40" fill="none" xmlns="http://www.w3.org/2000/svg"><path d="M18.717 27.924l-5.159-1.784-1.138.116-2.46 7.067a.325.325 0 00.342.43l3.448-.36a.325.325 0 01.26.09l2.48 2.424c.17.167.456.1.534-.125l2.476-7.113-.783-.745z" fill="#98DB7C"/><path d="M19.5 28.669l.5-1.438-7.08-2.407-.5 1.432a12.996 12.996 0 007.08 2.413z" fill="#82D361"/><path d="M21.283 27.924l5.159-1.784 1.137.116 2.46 7.067a.325.325 0 01-.34.43l-3.449-.36a.325.325 0 00-.26.09l-2.48 2.424a.325.325 0 01-.534-.125L20.5 28.669l.783-.745z" fill="#98DB7C"/><path d="M20.5 28.669L20 27.23l7.08-2.407.5 1.432a12.997 12.997 0 01-7.08 2.413z" fill="#82D361"/><path d="M20.001 26.465C8.4 26.465 8.391 15.225 8.4 15.03 8.705 8.887 13.782 4 20 4c6.215 0 11.29 4.88 11.6 11.018.01.198 0 11.447-11.6 11.447z" fill="#E0E0E0"/><path d="M20 26.06c-6.219 0-11.296-4.886-11.601-11.03-.01.194-.015.39-.015.586 0 6.415 5.2 11.616 11.616 11.616 6.415 0 11.616-5.201 11.616-11.616 0-.197-.005-.392-.015-.586C31.296 21.174 26.22 26.06 20 26.06z" fill="#CECECE"/><path d="M20 24.04c-9.15 0-9.145-8.816-9.132-9.01a9.151 9.151 0 0118.264 0c.012.194 0 9.01-9.132 9.01z" fill="#9E9E9E"/><path d="M20 23.596c-4.857 0-8.83-3.785-9.132-8.566a9.15 9.15 0 1018.263 0c-.302 4.781-4.274 8.566-9.131 8.566z" fill="#898989"/><path d="M22.041 20h-5.009c-.606 0-1.075-.87-1.029-1.07a3.072 3.072 0 01.87-1.506l3.524-3.434a.62.62 0 00.13-.766c-.064-.12-.265-.4-.731-.412h-.042c-.655 0-1.188.439-1.188.979 0 .5-.492.905-1.098.905-.607 0-1.099-.405-1.099-.905 0-1.54 1.519-2.791 3.385-2.791.039 0 .077 0 .116.002 1.168.032 2.189.602 2.665 1.488.484.899.307 1.922-.46 2.67l-3.525 3.433a1.727 1.727 0 00-.038.039h3.529c.402 0 .754.178.945.444.098.135-.338.924-.945.924z" fill="#E0E0E0"/></svg>