<svg width="40" height="40" viewBox="0 0 40 40" fill="none" xmlns="http://www.w3.org/2000/svg"><path d="M18.623 27.863l-4.797-1.598-1.406-.008-2.46 7.066a.325.325 0 00.342.43l3.448-.36a.326.326 0 01.26.09l2.48 2.424c.17.167.456.1.534-.125l2.476-7.113-.877-.806z" fill="#0083FD"/><path d="M19.5 28.669l.5-1.438-7.08-2.407-.5 1.432a12.996 12.996 0 007.08 2.413z" fill="#0072FC"/><path d="M21.377 27.863l4.796-1.598 1.407-.008 2.46 7.066a.325.325 0 01-.342.43l-3.448-.36a.325.325 0 00-.26.09l-2.48 2.424a.325.325 0 01-.534-.125L20.5 28.669l.877-.806z" fill="#0083FD"/><path d="M20.5 28.669L20 27.23l7.08-2.407.5 1.432a12.997 12.997 0 01-7.08 2.413z" fill="#0072FC"/><path d="M20 26.257c-11.6 0-11.61-11.033-11.6-11.227C8.703 8.887 13.781 4 20 4c6.22 0 11.297 4.887 11.602 11.03.01.194 0 11.227-11.601 11.227z" fill="#FF9838"/><path d="M20 26.06c-6.219 0-11.296-4.887-11.601-11.03-.01.194-.015.39-.015.586 0 6.415 5.2 11.616 11.616 11.616 6.415 0 11.616-5.201 11.616-11.616 0-.197-.005-.392-.015-.586C31.296 21.173 26.22 26.06 20 26.06z" fill="#FF8709"/><path d="M29.15 15.616c0 3.918-4.096 8.588-9.15 8.588s-9.15-4.927-9.15-8.588a9.151 9.151 0 0118.302 0z" fill="#CE7430"/><path d="M20 23.596a9.15 9.15 0 01-9.132-8.566 9.15 9.15 0 1018.263 0c-.302 4.781-4.274 8.566-9.131 8.566z" fill="#BC672E"/><path d="M19.5 20c-1.93 0-3.158-1.07-3.394-2.338a3.347 3.347 0 01-.029-.363c.165-.337.572-.575 1.05-.575.622 0 1.126.405 1.126.905 0 .553.56 1.003 1.247 1.003.688 0 1.247-.45 1.247-1.003a.844.844 0 00-.14-.46s-.084-.855-1.047-.855c-.965 0-1.03-1.054-1.03-1.054.197-.266.557-.444.97-.444.688 0 1.247-.45 1.247-1.003 0-.552-.56-1.002-1.247-1.002-.688 0-1.247.45-1.247 1.002 0 .5-.504.906-1.127.906-.622 0-1.126-.405-1.126-.906C16 12.263 17.57 11 19.5 11s3.5 1.262 3.5 2.813c0 .736-.353 1.406-.93 1.908.454.395.77.895.883 1.448 0 0 .004.303-.03.458C22.646 18.947 21.43 20 19.5 20z" fill="#FFAA5C"/></svg>