<svg xmlns="http://www.w3.org/2000/svg" width="16" height="16" viewBox="0 0 12 12"><g fill="#00f"><path d="M8.535 7.078c-.148 0-.289.012-.43.04a3.87 3.87 0 00-1.363-1.263 3.231 3.231 0 001.36-2.628A3.23 3.23 0 004.875 0a3.227 3.227 0 00-1.863 5.855c-.516.282-.961.68-1.305 1.168a3.838 3.838 0 00-.703 2.22v1.69a.35.35 0 00.351.352h5.446A2.458 2.458 0 008.535 12a2.466 2.466 0 002.461-2.46 2.466 2.466 0 00-2.46-2.462zm-4.082-.656c.137.02.281.027.422.027.145 0 .285-.008.426-.027v.324a.423.423 0 11-.848 0zM4.875.703c1.02 0 1.898.606 2.297 1.477h-.934l-.281-.383a.35.35 0 00-.504-.066l-.558.449H2.582A2.524 2.524 0 014.875.703zm-2.52 2.524c0-.118.008-.23.024-.344h2.64a.349.349 0 00.22-.078l.37-.297.168.23a.343.343 0 00.282.145h1.316a2.527 2.527 0 01-2.5 2.863 2.523 2.523 0 01-2.52-2.52zm-.648 6.015c0-1.3.82-2.488 2.043-2.957v.461a1.126 1.126 0 102.254 0v-.46A3.19 3.19 0 017.41 7.351a2.457 2.457 0 00-1.105 3.23H1.707zm6.828 2.055a1.76 1.76 0 01-1.758-1.758c0-.969.79-1.758 1.758-1.758.969 0 1.758.79 1.758 1.758a1.76 1.76 0 01-1.758 1.758zm0 0"/><path d="M9.238 9.188h-.351v-.352a.35.35 0 00-.352-.352.35.35 0 00-.351.352v.351h-.352a.35.35 0 00-.352.352.35.35 0 00.352.352h.352v.351a.35.35 0 00.351.352.35.35 0 00.352-.352v-.351h.351a.35.35 0 00.352-.352.35.35 0 00-.352-.351zm0 0"/></g></svg>