<svg xmlns="http://www.w3.org/2000/svg" width="16" height="16" viewBox="0 0 12 12"><g fill="red"><path d="M8.75 12A3.253 3.253 0 015.5 8.75 3.253 3.253 0 018.75 5.5 3.253 3.253 0 0112 8.75 3.253 3.253 0 018.75 12zm0-6A2.754 2.754 0 006 8.75a2.754 2.754 0 002.75 2.75 2.754 2.754 0 002.75-2.75A2.754 2.754 0 008.75 6zm0 0"/><path d="M6.633 11.117a.24.24 0 01-.176-.074.248.248 0 010-.352l4.234-4.234a.248.248 0 01.352 0 .248.248 0 010 .352l-4.234 4.234a.24.24 0 01-.176.074zM4.75 7.5h-3a.252.252 0 01-.25-.25c0-.137.113-.25.25-.25h3c.137 0 .25.113.25.25s-.113.25-.25.25zM4.25 9h-2.5a.252.252 0 01-.25-.25c0-.137.113-.25.25-.25h2.5c.137 0 .25.113.25.25S4.387 9 4.25 9zm0-5.5c-.55 0-1-.45-1-1s.45-1 1-1 1 .45 1 1-.45 1-1 1zm0-1.5a.499.499 0 100 1 .499.499 0 100-1zM6 6a.252.252 0 01-.25-.25v-.5A.75.75 0 005 4.5H3.5a.75.75 0 00-.75.75v.5c0 .137-.113.25-.25.25a.252.252 0 01-.25-.25v-.5C2.25 4.562 2.809 4 3.5 4H5c.691 0 1.25.563 1.25 1.25v.5c0 .137-.113.25-.25.25zm0 0"/><path d="M4.75 10.5h-3.5C.559 10.5 0 9.937 0 9.25v-8C0 .562.559 0 1.25 0h6C7.941 0 8.5.563 8.5 1.25v3.031c0 .137-.113.25-.25.25a.252.252 0 01-.25-.25V1.25A.75.75 0 007.25.5h-6a.75.75 0 00-.75.75v8c0 .414.336.75.75.75h3.5c.137 0 .25.113.25.25s-.113.25-.25.25zm0 0"/></g></svg>