<svg width="40" height="40" viewBox="0 0 40 40" fill="none" xmlns="http://www.w3.org/2000/svg"><g fill="#db2777" fill-opacity=".5"><path d="M31.5 4.8H8.925A4.13 4.13 0 004.8 8.925V35.25a1.125 1.125 0 001.95.764l7.992-8.639H31.5a4.13 4.13 0 004.125-4.125V8.925A4.13 4.13 0 0031.5 4.8zM18 21.997H9.675a1.125 1.125 0 010-2.25H18a1.125 1.125 0 010 2.25zm12.75-5.149H9.675a1.125 1.125 0 010-2.25H30.75a1.125 1.125 0 010 2.25zm0-5.148H9.675a1.125 1.125 0 010-2.25H30.75a1.125 1.125 0 010 2.25z"/><path d="M39.075 11.625h-1.2V23.25a6.382 6.382 0 01-6.375 6.375H15.726l-2.603 2.814A4.123 4.123 0 0016.5 34.2h16.758l7.991 8.639a1.125 1.125 0 001.951-.764V15.75a4.13 4.13 0 00-4.125-4.125z"/></g></svg>
