<?xml version="1.0" encoding="utf-8"?>
<!-- Generator: Adobe Illustrator 22.1.0, SVG Export Plug-In . SVG Version: 6.00 Build 0)  -->
<svg version="1.1" id="billin" xmlns="http://www.w3.org/2000/svg" xmlns:xlink="http://www.w3.org/1999/xlink" x="0px" y="0px"
	 viewBox="0 0 48 48" style="enable-background:new 0 0 48 48;" xml:space="preserve">
<style type="text/css">
	.st0{fill:#db2777;}
	.st1{opacity:0.5;enable-background:new    ;}
	.st2{fill:#f9a8d4;}
	.st3{opacity:0.2;fill:none;stroke:#f472b6;stroke-width:1.0067;enable-background:new    ;}
	.st4{opacity:0.4;fill:none;stroke:#f472b6;stroke-width:1.0067;enable-background:new    ;}
	.st5{opacity:0.8;fill:none;stroke:#f472b6;stroke-width:1.0067;enable-background:new    ;}
	.st6{fill:#f472b6;}
</style>
<path id="Prostokąt_zaokrąglony_834_kopia_5" class="st0" d="M1.1,11.3L19.9,1.2C20.5,0.8,21,1,21,1.6V35
	c-0.1,0.7-0.5,1.3-1.1,1.7L1.1,46.8C0.5,47.2,0,47,0,46.4V13C0.1,12.3,0.5,11.7,1.1,11.3z"/>
<path id="Kształt_857" class="st1" d="M16.8,25.3l-12,6.9v-1.2l12-6.9V25.3z M16.8,29.3l-12,6.9v-1.2l12-6.9V29.3z M16.8,33.3
	l-12,6.9v-1.2l12-6.9V33.3z"/>
<path id="_" class="st2" d="M11,20.5c-0.2,0.3-0.4,0.5-0.7,0.7c-0.2,0.2-0.6,0.2-0.8,0.1c-0.2-0.2-0.3-0.6-0.3-0.9l-1.5,0.9
	c-0.1,0.6,0.1,1.2,0.6,1.6c0.5,0.3,1.1,0.2,1.6-0.1V24l0.8-0.5v-1.2c0.6-0.4,1.1-1,1.5-1.6c0.3-0.6,0.5-1.3,0.5-2
	c0-0.3,0-0.6-0.1-0.9c-0.1-0.2-0.2-0.4-0.4-0.5c-0.2-0.1-0.4-0.2-0.7-0.2c-0.3,0-0.7,0-1,0c-0.3,0.1-0.6,0-0.8-0.1
	c-0.2-0.1-0.3-0.4-0.2-0.6c0-0.3,0.1-0.6,0.2-0.9c0.2-0.3,0.4-0.5,0.6-0.7c0.2-0.2,0.5-0.2,0.7,0c0.2,0.3,0.3,0.6,0.3,0.9l1.5-0.9
	c0.1-0.6-0.1-1.2-0.5-1.6c-0.4-0.3-1-0.3-1.4-0.1V12L10,12.5v1.3c-0.6,0.4-1.1,1-1.5,1.6C8.2,16,8,16.7,8,17.4c0,0.3,0,0.6,0.2,0.9
	c0.1,0.2,0.2,0.4,0.4,0.5c0.2,0.1,0.4,0.2,0.7,0.2c0.3,0,0.6,0,1-0.1c0.3-0.1,0.5,0,0.8,0.1c0.2,0.2,0.3,0.4,0.2,0.6
	C11.3,19.9,11.2,20.2,11,20.5z"/>
<g id="coin">
	<path id="Elipsa_853_kopia_3" class="st3" d="M32.1,37c4-1.9,8.8-1.9,12.8,0c3.5,1.9,3.5,5.1,0,7c-4,1.9-8.8,1.9-12.8,0
		C28.6,42.1,28.6,39,32.1,37z"/>
	<path id="Elipsa_853_kopia_2" class="st4" d="M32.1,33c4-1.9,8.8-1.9,12.8,0c3.5,1.9,3.5,5.1,0,7c-4,1.9-8.8,1.9-12.8,0
		C28.6,38.1,28.6,35,32.1,33z"/>
	<path id="Elipsa_853" class="st5" d="M32.1,28.1c4-1.9,8.8-1.9,12.8,0c3.5,1.9,3.5,5.1,0,7c-4,1.9-8.8,1.9-12.8,0
		C28.6,33.2,28.6,30,32.1,28.1z"/>
	<path id="Elipsa_853_kopia" class="st6" d="M31.8,23.1c4.2-2,9.2-2,13.4,0c3.7,2,3.7,5.3,0,7.4c-4.2,2-9.2,2-13.4,0
		C28.1,28.4,28.1,25.1,31.8,23.1z"/>
</g>
<g id="coin_1_">
	<path id="Elipsa_853_kopia_3_1_" class="st3" d="M25.1,27c4-1.9,8.8-1.9,12.8,0c3.5,1.9,3.5,5.1,0,7c-4,1.9-8.8,1.9-12.8,0
		C21.6,32.1,21.6,29,25.1,27z"/>
	<path id="Elipsa_853_kopia_2_1_" class="st4" d="M25.1,23c4-1.9,8.8-1.9,12.8,0c3.5,1.9,3.5,5.1,0,7c-4,1.9-8.8,1.9-12.8,0
		C21.6,28.1,21.6,25,25.1,23z"/>
	<path id="Elipsa_853_1_" class="st5" d="M25.1,18.1c4-1.9,8.8-1.9,12.8,0c3.5,1.9,3.5,5.1,0,7c-4,1.9-8.8,1.9-12.8,0
		C21.6,23.2,21.6,20,25.1,18.1z"/>
	<path id="Elipsa_853_kopia_1_" class="st6" d="M24.8,13.1c4.2-2,9.2-2,13.4,0c3.7,2,3.7,5.3,0,7.4c-4.2,2-9.2,2-13.4,0
		C21.1,18.4,21.1,15.1,24.8,13.1z"/>
</g>
</svg>
