<svg version="1.1" id="docs" xmlns="http://www.w3.org/2000/svg" xmlns:xlink="http://www.w3.org/1999/xlink" x="0px" y="0px"
	 viewBox="0 0 52 52" style="enable-background:new 0 0 52 52;" xml:space="preserve">
<style type="text/css">
	.st0{opacity:0.5;fill:none;stroke:#ec4899;enable-background:new    ;}
	.st1{fill:none;stroke:#ec4899;stroke-linecap:round;stroke-linejoin:round;}
	.st2{fill-rule:evenodd;clip-rule:evenodd;fill:#ec4899;}
	.st3{opacity:0.5;fill-rule:evenodd;clip-rule:evenodd;enable-background:new    ;}
	.st4{fill:none;stroke:#fbcfe8;}
	.st5{fill-rule:evenodd;clip-rule:evenodd;fill:#ec4899;}
	.st6{fill-rule:evenodd;clip-rule:evenodd;fill:#fbcfe8;}
	.st7{fill:none;stroke:#fbcfe8;stroke-width:2;}
</style>
<path id="Kształt_858_kopia_2" class="st0" d="M41.5,6.5c0-1.7-0.4-4.1-2.3-5.2C36.8-0.1,30.5,0.2,27,2.1l-24.4,14
	c-1.1,0.7-2.1,1.1-2.1,2.9c0,0.9,0,28,0,28l41-24L41.5,6.5z"/>
<path id="Kształt_858_kopia" class="st1" d="M0.5,20.6l0,27.5c0,0.9,3.4,4.1,8.2,1.3s23.8-14.1,23.8-14.1V6l-22,13
	c-6,3.4-10,0.4-10-0.6C0.5,18.9,0.5,20.6,0.5,20.6z"/>
<path id="Kształt_858" class="st2" d="M38.6,8.9L9,25.1v27l29.5-17c2.5-1.5,3.5-3.2,3.5-3.2V5.8C42,5.8,41.3,7.2,38.6,8.9z"/>
<path id="Kształt_857" class="st3" d="M36.5,20.3l-22,12.9V32l22-12.9V20.3z M36.5,24.3l-22,12.9V36l22-12.9V24.3z M24.5,35.3
	l-10,5.9V40l10-5.9V35.3z"/>
<g id="pen">
	<path id="Kształt_861" class="st4" d="M48.5,13l-3-1l-6,16"/>
	<path id="Kształt_859" class="st5" d="M41,46c0,0,9.7-28.8,10.8-31.9s-3.6-4.8-4.9-1C45.5,17.2,36,45,36,45l1.5,2L41,46z"/>
	<path id="Kształt_862" class="st6" d="M36,45l5,1l-5,5V45z"/>
	<path id="Kształt_860" class="st7" d="M44.5,22l4.1,1.3"/>
</g>
</svg>
