<svg version="1.1" id="products" xmlns="http://www.w3.org/2000/svg" xmlns:xlink="http://www.w3.org/1999/xlink" x="0px" y="0px"
	 viewBox="0 0 48 48" style="enable-background:new 0 0 48 48;" xml:space="preserve">
<style type="text/css">
	.st0{fill:#f472b6;}
	.st1{fill:#db2777;}
	.st2{opacity:0.4;fill:none;stroke:#f472b6;enable-background:new    ;}
	.st3{opacity:0.6;fill:none;stroke:#f472b6;enable-background:new    ;}
	.st4{opacity:0.8;fill:none;stroke:#f472b6;enable-background:new    ;}
	.st5{fill:#f9a8d4;}
</style>
<path id="Prostokąt_815_kopia_3_2_" class="st0" d="M32,16c0,1.2,0,5.2,0,6.3c0,1.9-0.2,2.3-0.9,2.7c-1.1,0.6-3.7,1.9-4.9,2.5
	c-1.8,0.9-2.5,1-4.3,0c-1.9-1-3.2-1.8-5-2.8c-1-0.6-0.9-0.7-0.9-2.3c0-1.8,0-5.9,0-6.8"/>
<path id="Prostokąt_813_kopia" class="st1" d="M47,34.1c0,1.4-1.6,2.7-2.6,3.3c-4.3,2.3-13,6.8-17.5,9.3c-2.6,1.4-3.6,1.3-5.7,0.1
	c-4.4-2.5-13.3-7-17.6-9.3c-2.1-1.1-2.6-2.2-2.6-3v-6.1c0.6,0.9,1.4,1.7,2.4,2.2c4.1,2.2,12.7,6.7,17.4,9.2c2.8,1.5,3.9,1.4,6.4,0.1
	c4.4-2.4,12.4-6.6,16.8-8.9c1.2-0.6,2.2-1.5,3-2.6V34.1z"/>
<g id="Grupa_2">
	<path id="Prostokąt_815_kopia_8" class="st2" d="M27.6,13.3c4.9,2.8,13.6,7.6,17.7,9.8c2.3,1.3,0.9,2.4-0.4,3.1
		c-4.5,2.5-12.9,7.2-17.8,9.9c-2.6,1.5-3.5,1.6-6.4,0c-4.6-2.5-12.5-6.9-17.3-9.6c-2.5-1.4-2.6-2.4,0.3-4.1
		c4.5-2.7,12.3-6.8,16.7-9.3C23,11.5,26.3,12.6,27.6,13.3z"/>
	<path id="Prostokąt_815_kopia_7" class="st3" d="M27.6,8.3c4.9,2.8,13.6,7.6,17.7,9.8c2.3,1.3,0.9,2.4-0.4,3.1
		c-4.5,2.5-12.9,7.2-17.8,9.9c-2.6,1.5-3.5,1.6-6.4,0c-4.6-2.5-12.5-6.9-17.3-9.6c-2.5-1.4-2.6-2.4,0.3-4.1
		c4.5-2.7,12.3-6.8,16.7-9.3C23,6.5,26.3,7.6,27.6,8.3z"/>
	<path id="Prostokąt_815_kopia_6" class="st4" d="M27.6,2.3c4.9,2.8,13.6,7.6,17.7,9.8c2.3,1.3,0.9,2.4-0.4,3.1
		c-4.5,2.5-12.9,7.2-17.8,9.9c-2.6,1.5-3.5,1.6-6.4,0c-4.6-2.5-12.5-6.9-17.3-9.6c-2.5-1.4-2.6-2.4,0.3-4.1C8.2,8.7,15.9,4.5,20.3,2
		C23,0.5,26.3,1.6,27.6,2.3z"/>
</g>
<path id="Kształt_882" class="st5" d="M22.1,11.5c-1.3,0.8-4.5,2.5-5.2,2.9s-1.5,1.3-0.3,2.1c1.3,0.8,4.8,2.7,6.1,3.4
	c0.8,0.5,2.2,0.4,3.2,0c1.3-0.6,5.2-2.6,5.7-2.9c0.5-0.4,1-1.5-0.6-2.4c-0.4-0.2-4.8-2.6-5.7-3.1C24.5,11.1,22.9,11,22.1,11.5z"/>
</svg>
