<svg width="38" height="34" viewBox="0 0 38 34" fill="none" xmlns="http://www.w3.org/2000/svg"><g fill="#db2777" fill-opacity=".5"><path d="M.776 28.256c.025.594.434 1.1 1.008 1.253l13.744 3.642a3.899 3.899 0 002.261-.082l18.543-6.38a1.357 1.357 0 00-.144-2.607l-2.367-.531-15.23 5.24a6.334 6.334 0 01-3.694.134L4.07 26.056l-2.398.864a1.357 1.357 0 00-.896 1.336z"/><path d="M.776 21.653a1.356 1.356 0 001.009 1.253l13.743 3.642a3.887 3.887 0 002.261-.082l18.543-6.38a1.357 1.357 0 00-.144-2.608l-2.367-.53-15.23 5.24a6.336 6.336 0 01-3.694.134L4.07 19.453l-2.398.864a1.357 1.357 0 00-.896 1.336z"/><path d="M18.59 15.585a6.337 6.337 0 01-3.693.133L4.07 12.85l-2.398.864a1.357 1.357 0 00.113 2.59l13.743 3.641a3.895 3.895 0 002.261-.082l18.543-6.38a1.358 1.358 0 00-.144-2.608l-2.367-.53-15.23 5.24z"/><path d="M1.784 9.7l13.744 3.641a3.894 3.894 0 002.261-.082l18.543-6.38a1.357 1.357 0 00-.144-2.607L20.875.837a3.89 3.89 0 00-2.17.136L1.672 7.11a1.357 1.357 0 00.112 2.59z"/></g></svg>
