<svg version="1.1" id="deploy" xmlns="http://www.w3.org/2000/svg" xmlns:xlink="http://www.w3.org/1999/xlink" x="0px" y="0px"
	 viewBox="0 0 48 48" style="enable-background:new 0 0 48 48;" xml:space="preserve">
<style type="text/css">
	.st0{opacity:0.4;fill:none;stroke:#ec4899;enable-background:new    ;}
	.st1{opacity:0.6;fill:none;stroke:#ec4899;enable-background:new    ;}
	.st2{opacity:0.8;fill:none;stroke:#ec4899;enable-background:new    ;}
	.st3{fill:url(#Prostokąt_815_kopia_9_1_);}
	.st4{fill:#FFFFFF;}
	.st5{fill:url(#Prostokąt_zaokrąglony_834_kopia_10_1_);}
</style>
<g id="Grupa_2">
	<path id="Prostokąt_815_kopia_7" class="st0" d="M27.6,20.8c4.9,2.8,13.6,7.6,17.7,9.8c2.3,1.3,0.9,2.4-0.4,3.1
		c-4.5,2.5-12.9,7.2-17.8,9.9c-2.6,1.5-3.5,1.6-6.4,0C16.1,41.1,8.1,36.7,3.4,34c-2.5-1.4-2.6-2.4,0.3-4.1
		c4.5-2.7,12.3-6.8,16.7-9.3C23,19,26.3,20.1,27.6,20.8z"/>
	<path id="Prostokąt_815_kopia_6" class="st1" d="M27.6,14.8c4.9,2.8,13.6,7.6,17.7,9.8c2.3,1.3,0.9,2.4-0.4,3.1
		c-4.5,2.5-12.9,7.2-17.8,9.9c-2.6,1.5-3.5,1.6-6.4,0C16.1,35.1,8.1,30.7,3.4,28c-2.5-1.4-2.6-2.4,0.3-4.1
		c4.5-2.7,12.3-6.8,16.7-9.3C23,13,26.3,14.1,27.6,14.8z"/>
	<path id="Prostokąt_815_kopia_11" class="st2" d="M27.6,8.8c4.9,2.7,13.6,7.6,17.7,9.8c2.3,1.3,0.9,2.4-0.4,3.1
		c-4.5,2.5-12.9,7.2-17.8,9.9c-2.6,1.5-3.5,1.6-6.4,0C16.1,29.1,8.1,24.7,3.4,22c-2.5-1.4-2.6-2.4,0.3-4.1
		c4.5-2.7,12.3-6.8,16.7-9.3C23,7,26.3,8.1,27.6,8.8z"/>
	
		<linearGradient id="Prostokąt_815_kopia_9_1_" gradientUnits="userSpaceOnUse" x1="0.9583" y1="15.0067" x2="46.9167" y2="15.0067">
		<stop  offset="0" style="stop-color:#db2777"/>
		<stop  offset="1" style="stop-color:#ec4899"/>
	</linearGradient>
	<path id="Prostokąt_815_kopia_9" class="st3" d="M27.6,3.7c5,2.7,13.9,7.5,18.1,9.7c2.4,1.2,0.9,2.3-0.4,3
		c-4.6,2.5-13.2,7.1-18.2,9.7c-2.7,1.4-3.6,1.6-6.6,0c-4.7-2.4-12.8-6.8-17.7-9.4c-2.5-1.4-2.6-2.4,0.3-4C7.8,10.1,15.7,6,20.2,3.5
		C23,2,26.3,3.1,27.6,3.7z"/>
	<path id="Kształt_805_kopia" class="st4" d="M29.5,10.8l-4.7,2.5l4.7,2.5l-1.8,1L23,14.2l-4.7,2.5l-1.8-1l4.7-2.5l-4.7-2.5l1.8-1
		l4.7,2.5l4.7-2.5L29.5,10.8z"/>
</g>
<linearGradient id="Prostokąt_zaokrąglony_834_kopia_10_1_" gradientUnits="userSpaceOnUse" x1="90.5161" y1="31.5784" x2="78.0766" y2="10.0326">
	<stop  offset="0" style="stop-color:#db2777"/>
	<stop  offset="1" style="stop-color:#ec4899"/>
</linearGradient>
<path id="Prostokąt_zaokrąglony_834_kopia_10" class="st5" d="M94.2,24.7l-0.9,0.5V30l-5.4-1.8l-15.5,8.6
	c-0.6,0.3-1.1,0.1-1.1-0.5V15c0.1-0.7,0.5-1.3,1.1-1.7L94.2,1.2c0.6-0.3,1.1-0.1,1.1,0.5V23C95.2,23.7,94.8,24.3,94.2,24.7z"/>
</svg>
