<?xml version="1.0" encoding="utf-8"?>
<!-- Generator: Adobe Illustrator 22.1.0, SVG Export Plug-In . SVG Version: 6.00 Build 0)  -->
<svg version="1.1" id="support" xmlns="http://www.w3.org/2000/svg" xmlns:xlink="http://www.w3.org/1999/xlink" x="0px" y="0px"
	 viewBox="0 0 48 48" style="enable-background:new 0 0 48 48;" xml:space="preserve">
<style type="text/css">
	.st0{fill:url(#Prostokąt_zaokrąglony_834_kopia_9_1_);}
	.st1{opacity:0.2;fill:none;stroke:#ec4899;enable-background:new    ;}
	.st2{opacity:0.4;fill:none;stroke:#ec4899;enable-background:new    ;}
	.st3{opacity:0.8;fill:none;stroke:#ec4899;enable-background:new    ;}
	.st4{fill:url(#Prostokąt_zaokrąglony_834_kopia_10_1_);}
	.st5{fill:#FFFFFF;}
</style>
<linearGradient id="Prostokąt_zaokrąglony_834_kopia_9_1_" gradientUnits="userSpaceOnUse" x1="19.4497" y1="30.895" x2="6.8248" y2="9.028">
	<stop  offset="0" style="stop-color:#9d174d"/>
	<stop  offset="1" style="stop-color:#db2777"/>
</linearGradient>
<path id="Prostokąt_zaokrąglony_834_kopia_9" class="st0" d="M22.9,23.7L21,24.7V30l-5.9-2l-14,7.8C0.5,36.2,0,36,0,35.4V14
	c0.1-0.7,0.5-1.3,1.1-1.7L22.9,0.2C23.5-0.2,24,0,24,0.6V22C23.9,22.7,23.5,23.3,22.9,23.7z"/>
<path id="Prostokąt_zaokrąglony_834_kopia_11" class="st1" d="M29.4,26.7l-1.9,1.1V33l-5.9-2l-14,7.8C7,39.2,6.5,39,6.5,38.4V17
	c0.1-0.7,0.5-1.3,1.1-1.7L29.4,3.2C30,2.8,30.5,3,30.5,3.6V25C30.4,25.7,30,26.3,29.4,26.7z"/>
<path id="Prostokąt_zaokrąglony_834_kopia_12" class="st2" d="M35.4,29.7l-1.9,1.1V36l-5.9-2l-14,7.8c-0.6,0.3-1.1,0.1-1.1-0.5V20
	c0.1-0.7,0.5-1.3,1.1-1.7L35.4,6.2C36,5.8,36.5,6,36.5,6.6V28C36.4,28.7,36,29.3,35.4,29.7z"/>
<path id="Prostokąt_zaokrąglony_834_kopia_13" class="st3" d="M41.4,33.7l-1.9,1.1V40l-5.9-2l-14,7.8c-0.6,0.3-1.1,0.1-1.1-0.5V24
	c0.1-0.7,0.5-1.3,1.1-1.7l21.8-12.1c0.6-0.3,1.1-0.1,1.1,0.5V32C42.4,32.7,42,33.3,41.4,33.7z"/>
<linearGradient id="Prostokąt_zaokrąglony_834_kopia_10_1_" gradientUnits="userSpaceOnUse" x1="43.2661" y1="42.5784" x2="30.8266" y2="21.0326">
	<stop  offset="0" style="stop-color:#9d174d"/>
	<stop  offset="1" style="stop-color:#db2777"/>
</linearGradient>
<path id="Prostokąt_zaokrąglony_834_kopia_10" class="st4" d="M46.9,35.7L46,36.2V41l-5.4-1.8l-15.5,8.6C24.5,48.2,24,48,24,47.4
	V26c0.1-0.7,0.5-1.3,1.1-1.7l21.8-12.1c0.6-0.3,1.1-0.1,1.1,0.5V34C47.9,34.7,47.5,35.3,46.9,35.7z"/>
<path id="_" class="st5" d="M37.7,32.6l0-0.5c0.1-0.6,0.3-1.2,0.6-1.7l0.5-1c0.4-0.6,0.7-1.2,0.9-1.9c0.2-0.5,0.2-1,0.3-1.5
	c0.1-0.7-0.2-1.5-0.8-1.9c-0.8-0.2-1.6,0-2.2,0.5c-0.9,0.5-1.7,1.3-2.2,2.2c-0.5,0.9-0.8,1.9-0.8,2.9l1.9-1.1c0-0.4,0.1-0.8,0.3-1.2
	c0.2-0.3,0.5-0.6,0.8-0.8c0.7-0.4,1-0.2,1,0.8c0,0.3-0.1,0.7-0.2,1c-0.2,0.5-0.5,1.1-0.8,1.5c-0.4,0.6-0.6,1.2-0.8,1.8
	c-0.2,0.6-0.2,1.3-0.2,2L37.7,32.6z M36.1,36.9c0.3,0.1,0.6,0.1,0.8-0.1c0.7-0.4,1.1-1.1,1.1-1.9c0.1-0.3-0.1-0.7-0.5-0.8
	c-0.2-0.1-0.5,0-0.6,0.2c-0.7,0.4-1.1,1.1-1.1,1.9C35.8,36.5,35.9,36.8,36.1,36.9L36.1,36.9z"/>
</svg>
