<svg id="Layer_1" data-name="Layer 1" xmlns="http://www.w3.org/2000/svg" viewBox="0 0 37.27 40">
  <path
    d="M72.94,66.31l1.24,1.24a.83.83,0,0,1,0,1.17l-1,1a7.18,7.18,0,0,1,.62,1.66h1.3a.86.86,0,0,1,.84.84V74a.86.86,0,0,1-.84.84h-1.4a6.59,6.59,0,0,1-.72,1.6l.92.91a.83.83,0,0,1,0,1.17l-1.24,1.23a.82.82,0,0,1-1.17,0l-1-1a7.16,7.16,0,0,1-1.66.61v1.3a.86.86,0,0,1-.84.85H66.21a.86.86,0,0,1-.84-.85V79.22a7,7,0,0,1-1.6-.71l-.91.91a.83.83,0,0,1-1.17,0l-1.24-1.24a.83.83,0,0,1,0-1.17l1-1a7.28,7.28,0,0,1-.62-1.65h-1.3a.86.86,0,0,1-.84-.85V71.74a.86.86,0,0,1,.84-.84h1.4a7.19,7.19,0,0,1,.72-1.6l-.88-.87a.82.82,0,0,1,0-1.17L62,66a.83.83,0,0,1,1.17,0l1,1a7.36,7.36,0,0,1,1.66-.62v-1.3a.86.86,0,0,1,.85-.85h1.75a.86.86,0,0,1,.85.85v1.4a6.89,6.89,0,0,1,1.59.71l.91-.91a.8.8,0,0,1,1.14,0ZM52.13,68.23a.9.9,0,0,1-.81-1,.89.89,0,0,1,.81-1h4a.91.91,0,0,1,.81,1,.88.88,0,0,1-.81,1ZM53.33,78a1,1,0,1,1,0,2H41a2.32,2.32,0,0,1-1.62-.68,2.27,2.27,0,0,1-.68-1.63V43.81a2.29,2.29,0,0,1,.68-1.63A2.25,2.25,0,0,1,41,41.5h28.2a2.34,2.34,0,0,1,1.63.68,2.29,2.29,0,0,1,.68,1.63V59.52a1,1,0,0,1-2,0V43.81a.29.29,0,0,0-.1-.23.31.31,0,0,0-.23-.1H41a.3.3,0,0,0-.22.1c-.07,0-.1.13-.1.23V77.73a.29.29,0,0,0,.1.23.29.29,0,0,0,.22.09H53.33v0ZM44.78,65.6h3.48a.3.3,0,0,1,.32.32v3a.31.31,0,0,1-.32.33H44.78a.31.31,0,0,1-.33-.33v-3a.31.31,0,0,1,.33-.32Zm0-17.21h3.48a.31.31,0,0,1,.32.33v3a.31.31,0,0,1-.32.33H44.78a.31.31,0,0,1-.33-.33v-3a.31.31,0,0,1,.33-.33ZM52.13,51a.91.91,0,0,1-.81-1,.88.88,0,0,1,.81-1H63.41a.91.91,0,0,1,.82,1,.89.89,0,0,1-.82,1Zm-6.34,9.14a.57.57,0,0,1-.75-.1L45,60l-1-1.07a.59.59,0,0,1,.1-.84.7.7,0,0,1,.91,0l.56.59,1.82-1.47a.58.58,0,0,1,.81.2.65.65,0,0,1-.07.91l-2.27,1.89Zm5.79-.85a.91.91,0,0,1-.82-1,.89.89,0,0,1,.82-1H62.86a.91.91,0,0,1,.81,1,.88.88,0,0,1-.81,1ZM67.32,69.43a3.45,3.45,0,1,1-3.45,3.45,3.45,3.45,0,0,1,3.45-3.45Z"
    transform="translate(-38.67 -41.5)" style="fill-rule:evenodd"
    fill="#db2777" fill-opacity=".5"/>
</svg>
