<svg width="38" height="34" viewBox="0 0 38 34" fill="none" xmlns="http://www.w3.org/2000/svg">
  <g>
    <path fill="#50248F"
      d="m436.964 224.875h-52.111c-4.143 0-7.5 3.358-7.5 7.5s3.357 7.5 7.5 7.5h44.591c-.754 25.628-21.836 46.245-47.643 46.245s-46.889-20.617-47.643-46.245h15.843c4.143 0 7.5-3.358 7.5-7.5s-3.357-7.5-7.5-7.5h-23.363c-4.143 0-7.5 3.358-7.5 7.5v6.081c0 32.013 24.136 58.479 55.163 62.199v88.323c-19.446 3.374-34.524 19.616-36.116 39.61h-11.547c-4.143 0-7.5 3.358-7.5 7.5s3.357 7.5 7.5 7.5h18.895 72.537 18.895c4.143 0 7.5-3.358 7.5-7.5s-3.357-7.5-7.5-7.5h-11.547c-1.592-19.994-16.67-36.237-36.116-39.61v-88.323c31.027-3.72 55.163-30.186 55.163-62.199v-6.081c-.001-4.142-3.359-7.5-7.501-7.5zm-26.607 203.714h-57.113c1.732-14.218 13.879-25.267 28.557-25.267s26.824 11.049 28.556 25.267z" />
    <path fill="#50248F"
      d="m469.223 453.509v-23.501c0-32.893-18.188-62.688-47.468-77.756-3.619-1.862-5.958-5.821-5.958-10.086v-15.866c0-4.265 2.339-8.224 5.958-10.087 29.279-15.068 47.468-44.862 47.468-77.755v-23.498c14.744-1.53 26.278-14.026 26.278-29.168 0-16.171-13.155-29.327-29.326-29.327h-52.185v-80.395c0-17.319-14.095-31.41-31.42-31.41h-35.47v-22.639c0-12.142-9.878-22.021-22.021-22.021s-22.021 9.879-22.021 22.021v22.639h-65.791v-22.639c0-12.142-9.879-22.021-22.022-22.021s-22.021 9.879-22.021 22.021v22.639h-65.791v-22.639c0-12.142-9.879-22.021-22.022-22.021s-22.021 9.879-22.021 22.021v22.639h-35.47c-17.325 0-31.42 14.09-31.42 31.41v105.83c0 4.142 3.357 7.5 7.5 7.5s7.5-3.358 7.5-7.5v-57.181h367.49v31.746h-101.563c-16.171 0-29.326 13.156-29.326 29.327 0 15.141 11.535 27.638 26.278 29.168v23.498c0 .279.012.555.014.833h-64.528v-67.471c0-4.142-3.357-7.5-7.5-7.5s-7.5 3.358-7.5 7.5v67.471h-77.747v-67.471c0-4.142-3.357-7.5-7.5-7.5s-7.5 3.358-7.5 7.5v67.471h-55.888c-4.143 0-7.5 3.358-7.5 7.5s3.357 7.5 7.5 7.5h55.888v77.75h-55.888c-4.143 0-7.5 3.358-7.5 7.5s3.357 7.5 7.5 7.5h55.888v67.478c0 4.142 3.357 7.5 7.5 7.5s7.5-3.358 7.5-7.5v-67.479h77.747v67.478c0 4.142 3.357 7.5 7.5 7.5s7.5-3.358 7.5-7.5v-67.478h77.745v36.653c-8.502 13.611-13.231 29.558-13.231 46.315v23.501c-6.535.67-12.596 3.491-17.361 8.113h-171.356v-42.744c0-17.325-14.095-31.419-31.419-31.419h-42.744v-170.709c0-4.142-3.357-7.5-7.5-7.5s-7.5 3.358-7.5 7.5v178.208c0 .085.01.169.012.253.003.084.007.168.012.252.021.319.056.637.118.948.001.004.001.008.002.012.063.318.154.627.257.933.026.078.054.155.083.232.109.29.23.574.374.849.007.014.013.03.021.044.153.286.33.559.519.825.048.067.096.133.147.198.201.264.414.52.651.757l74.163 74.163c.177.177.362.344.554.501.097.08.201.149.302.224.098.072.192.149.293.216.118.079.242.146.365.218.089.052.176.11.268.159.121.064.246.117.37.175.098.046.194.096.294.138.115.047.233.084.349.125.114.041.226.086.342.121.111.033.224.056.336.084.124.031.247.068.374.093.119.024.24.036.361.054s.242.041.364.053c.203.02.407.027.612.03.04.001.08.006.12.006h170.598c-.42 1.982-.661 4.006-.661 6.048 0 16.173 13.157 29.33 29.33 29.33h110.871c4.143 0 7.5-3.358 7.5-7.5s-3.357-7.5-7.5-7.5h-110.87c-7.901 0-14.33-6.429-14.33-14.33 0-3.268 1.068-6.338 3.114-8.91.336-.426.699-.835 1.08-1.216 2.704-2.704 6.304-4.193 10.136-4.193h168.74c7.901 0 14.33 6.424 14.33 14.32 0 3.833-1.489 7.433-4.193 10.137s-6.304 4.193-10.137 4.193h-23.02c-4.143 0-7.5 3.358-7.5 7.5s3.357 7.5 7.5 7.5h23.02c7.84 0 15.206-3.049 20.744-8.587 5.537-5.538 8.586-12.904 8.586-20.743 0-15.137-11.534-27.63-26.277-29.161zm-144.144-438.509c3.871 0 7.021 3.15 7.021 7.021v48.149c0 3.872-3.149 7.021-7.021 7.021s-7.021-3.149-7.021-7.021v-17.971c0-.013.002-.026.002-.039s-.002-.026-.002-.039v-30.1c0-3.871 3.149-7.021 7.021-7.021zm-116.855 7.021c0-3.872 3.149-7.021 7.021-7.021s7.021 3.15 7.021 7.021v48.149c0 3.872-3.149 7.021-7.021 7.021s-7.021-3.149-7.021-7.021zm-109.834 0c0-3.872 3.149-7.021 7.021-7.021s7.021 3.15 7.021 7.021v30.081c0 .02-.003.039-.003.058s.003.038.003.058v17.952c0 3.872-3.149 7.021-7.021 7.021s-7.021-3.149-7.021-7.021zm300.595 87.698h-367.481v-33.644c0-.014-.002-.027-.002-.041.02-9.032 7.376-16.374 16.418-16.374h35.47v10.51c0 12.143 9.879 22.021 22.021 22.021s22.021-9.878 22.021-22.021v-10.51h65.791v10.51c0 12.143 9.879 22.021 22.021 22.021s22.021-9.878 22.021-22.021v-10.51h65.791v10.51c0 12.143 9.879 22.021 22.021 22.021s22.023-9.878 22.023-22.021v-10.51h35.471c9.038 0 16.393 7.337 16.417 16.364 0 .017-.002.034-.002.051v33.644zm15.907 193.156c-8.694 4.474-14.095 13.45-14.095 23.424v15.866c0 9.975 5.4 18.951 14.095 23.424 24.26 12.486 39.331 37.169 39.331 64.418v23.342h-144.844v-23.342c0-14.276 4.143-27.844 11.571-39.326.295-.366.557-.759.78-1.177 6.691-9.912 15.868-18.196 26.981-23.915 8.694-4.474 14.095-13.449 14.095-23.424v-2.529c0-.032.005-.064.005-.097s-.004-.064-.005-.097v-13.144c0-9.975-5.4-18.95-14.095-23.424-11.109-5.717-20.283-13.997-26.973-23.905-.229-.432-.499-.84-.806-1.217-6.086-9.419-9.966-20.238-11.158-31.701-.002-.016-.003-.033-.005-.049-.257-2.488-.389-5.006-.389-7.547v-23.339h144.844v23.339c-.001 27.251-15.073 51.934-39.332 64.42zm-92.282-.064c5.695 5.22 12.136 9.747 19.236 13.401 3.619 1.863 5.958 5.822 5.958 10.087v5.741h-25.194zm-39.509-117.02c0-7.9 6.427-14.327 14.326-14.327h168.748c7.899 0 14.326 6.427 14.326 14.327 0 7.899-6.427 14.326-14.326 14.326h-168.748c-7.9 0-14.326-6.427-14.326-14.326zm-145.983 146.249v-77.75h77.747v77.75zm92.747 0v-77.75h65.95c1.992 10.92 6.021 21.239 11.795 30.481v47.269zm116.858 15c-1.022 2.229-2.713 4.099-4.876 5.212-7.1 3.654-13.542 8.18-19.236 13.401v-18.613zm-304.618 55.418h32.138c9.054 0 16.419 7.366 16.419 16.419v32.137z" />
  </g>
</svg>
