<svg version="1.1" id="md-infinite" xmlns="http://www.w3.org/2000/svg" x="0" y="0" viewBox="0 0 152 152" xml:space="preserve"><style>.st0,.st1{fill:#be185d;stroke:#be185d;stroke-linecap:round;stroke-linejoin:round}.st1{stroke:#be185d}.st3,.st7{fill-rule:evenodd;clip-rule:evenodd}.st3{fill:#db2777}.st7{stroke-width:2}.st14,.st7{fill:#db2777;stroke:#db2777;stroke-linecap:round;stroke-linejoin:round}</style><g id="button"><path id="Kształt_1554" class="st0" d="M133 124.5s4.3-2.7 6-4 2.4-4.7-3-8c-4.4-2.7-25-14-25-14"/><path id="Kształt_1473" class="st0" d="M117.3 134.8c-.1.1-3 2.2-10.6 6.6-6.4 3.8-10.9 2.8-15.6.3-19-10.2-30-16.4-30-16.4"/><path id="Elipsa_1386" class="st1" d="M117 123.4c4.7-3.1 12.3-3.1 17 0s4.7 8.2 0 11.3-12.3 3.1-17 0-4.7-8.2 0-11.3z"/><path id="Prostokąt_1389" d="M132.2 132.7c-4.2 2.3-9.3 2.3-13.4 0-1.6-.8-2.6-2.4-2.8-4.2v-6h19v5.9c0 1.5-.9 3.1-2.8 4.3z" fill-rule="evenodd" clip-rule="evenodd" fill="#be185d"/><path id="Elipsa_1386_kopia_2" class="st3" d="M118.8 118.2c4.2-2.3 9.3-2.3 13.4 0 3.7 2.3 3.7 6.1 0 8.5-4.2 2.3-9.3 2.3-13.4 0-3.7-2.3-3.7-6.1 0-8.5z"/></g><linearGradient id="Prostokąt_zaokrąglony_1356_kopia_10_1_" gradientUnits="userSpaceOnUse" x1="44.01" y1="35.075" x2="86" y2="35.075"><stop offset="0" stop-color="#ec4899"/><stop offset="1" stop-color="#db2777"/></linearGradient><path id="Prostokąt_zaokrąglony_1356_kopia_10" d="M44 53.6V41.5c.2-1.6 1.1-2.9 2.4-3.7l37.1-20.9c1.3-.8 2.4-.3 2.4 1v11.7L44 53.6z" fill-rule="evenodd" clip-rule="evenodd" fill="url(#Prostokąt_zaokrąglony_1356_kopia_10_1_)"/><linearGradient id="Prostokąt_zaokrąglony_1356_kopia_13_1_" gradientUnits="userSpaceOnUse" x1="91" y1="17.128" x2="117.73" y2="17.128"><stop offset="0" stop-color="#ec4899"/>
<stop offset="1" stop-color="#ec4899"/></linearGradient><path id="Prostokąt_zaokrąglony_1356_kopia_13" d="M91 26.8V12.5s1.8-1.1 4.2-2.5c5.7-3.3 14.9-3.3 20.5 0 .7.4 1.4.9 2 1.5L91 26.8z" fill-rule="evenodd" clip-rule="evenodd" fill="url(#Prostokąt_zaokrąglony_1356_kopia_13_1_)"/><linearGradient id="Prostokąt_zaokrąglony_1356_kopia_16_1_" gradientUnits="userSpaceOnUse" x1="28.01" y1="80.367" x2="38.46" y2="80.367">
<stop offset="0" stop-color="#ec4899"/>
<stop offset="1" stop-color="#db2777"/></linearGradient>
<path id="Prostokąt_zaokrąglony_1356_kopia_16" d="M38 62.1v35.8l-7.6 4.3c-1.3.8-2.4.3-2.4-1V66.5c.2-1.6 1.1-2.9 2.4-3.7l8-4.5c-.3 1.2-.5 2.5-.4 3.8z" fill-rule="evenodd" clip-rule="evenodd" fill="url(#Prostokąt_zaokrąglony_1356_kopia_16_1_)"/><g id="browser"><path id="Prostokąt_zaokrąglony_1356" class="st1" d="M40.4 55.4l77.2-44.2c2.7-1.6 4.9-1.6 4.9 1.1v73.6c0 2.7-2.2 5.1-4.9 6.7l-77.2 44.2c-2.7 1.6-2.9-.4-2.9-3.1V62.1c0-2.7.2-5.1 2.9-6.7z"/><path id="Elipsa_1360" class="st7" d="M44.7 61c.7-.4 1.3-.1 1.3.5-.1.8-.6 1.5-1.3 1.8-.7.4-1.2.1-1.2-.5.1-.8.6-1.5 1.2-1.8z"/><path id="Elipsa_1360_kopia" class="st7" d="M52 56.9c.7-.4 1.2-.1 1.2.5-.1.8-.6 1.5-1.2 1.8-.7.4-1.2.1-1.2-.5 0-.7.5-1.4 1.2-1.8z"/><path id="Elipsa_1360_kopia_2" class="st7" d="M59.2 52.9c.7-.4 1.2-.1 1.2.5-.1.8-.6 1.5-1.2 1.8-.7.4-1.2.1-1.2-.5 0-.8.5-1.4 1.2-1.8z"/></g><linearGradient id="Prostokąt_zaokrąglony_1356_kopia_8_1_" gradientUnits="userSpaceOnUse" x1="110.01" y1="48.997" x2="152" y2="48.997"><stop offset="0" stop-color="#ec4899"/><stop offset="1" stop-color="#d7e6fe"/></linearGradient><path id="Prostokąt_zaokrąglony_1356_kopia_8" d="M112.4 39.8l37.1-20.9c1.3-.8 2.4-.3 2.4 1v34.6c-.2 1.6-1.1 2.9-2.4 3.7l-37.1 20.9c-1.3.8-2.4.3-2.4-1V43.5c.2-1.6 1.1-3 2.4-3.7z" fill-rule="evenodd" clip-rule="evenodd" fill="url(#Prostokąt_zaokrąglony_1356_kopia_8_1_)"/><linearGradient id="Prostokąt_zaokrąglony_1356_kopia_9_1_" gradientUnits="userSpaceOnUse" x1="58.01" y1="77.997" x2="100" y2="77.997"><stop offset="0" stop-color="#ec4899"/><stop offset="1" stop-color="#d7e6fe"/></linearGradient><path id="Prostokąt_zaokrąglony_1356_kopia_9" d="M60.4 68.8l37.1-20.9c1.3-.8 2.4-.3 2.4 1v34.6c-.2 1.6-1.1 2.9-2.4 3.7l-37.1 20.9c-1.3.8-2.4.3-2.4-1V72.5c.2-1.6 1.1-3 2.4-3.7z" fill-rule="evenodd" clip-rule="evenodd" fill="url(#Prostokąt_zaokrąglony_1356_kopia_9_1_)"/><g id="Grupa_62"><linearGradient id="Prostokąt_zaokrąglony_1356_kopia_12_1_" gradientUnits="userSpaceOnUse" x1="0" y1="99.508" x2="49.017" y2="99.508"><stop offset="0" stop-color="#ec4899"/><stop offset="1" stop-color="#d7e6fe"/></linearGradient><path id="Prostokąt_zaokrąglony_1356_kopia_12" d="M46.6 117.2s-9.8 5.2-19.5 10.6c-.5.4-.9.7-1.4 1-5.9 3.5-15.4 3.5-21.2 0-2.5-1.5-3.9-3.4-4.3-5.4H.1V82.9c.1-2.7 1.6-5.2 4-6.4 10.9-6.1 14.5-8.6 14.5-8.6 1.4-.8 2.5-.3 2.5 1l-2 21.8c2.1 0 4.1-.4 6-1.1C35.4 83.8 46.7 78 46.7 78c1.3-.8 2.4-.3 2.4 1v34.6c-.2 1.5-1.2 2.9-2.5 3.6z" fill-rule="evenodd" clip-rule="evenodd" fill="url(#Prostokąt_zaokrąglony_1356_kopia_12_1_)"/><linearGradient id="Prostokąt_zaokrąglony_1356_kopia_15_1_" gradientUnits="userSpaceOnUse" x1="-.001" y1="79.701" x2="21" y2="79.701"><stop offset="0" stop-color="#f472b6"/><stop offset="1" stop-color="#db2777"/></linearGradient><path id="Prostokąt_zaokrąglony_1356_kopia_15" d="M21 90.7c-5.5 1.4-12.1.8-16.6-1.9-5.9-3.5-5.9-9.2 0-12.7 3-1.8 10.1-6.1 13.9-7.9 2.4-1.1 2.7 1.1 2.7 2.5v20z" fill-rule="evenodd" clip-rule="evenodd" fill="url(#Prostokąt_zaokrąglony_1356_kopia_15_1_)"/></g><g id="wp"><path id="Prostokąt_zaokrąglony_1356_kopia_6" class="st3" d="M84.4 82.7l37.1-20.9c1.3-.8 2.4-.3 2.4 1v34.6c-.2 1.6-1.1 2.9-2.4 3.7L84.4 122c-1.3.7-2.4.3-2.4-1V86.5c.2-1.6 1.1-3 2.4-3.8z"/><path id="Kształt_1370" d="M104.5 104.2c-5.2 3.1-9.5.6-9.5-5.6s4.3-13.7 9.5-16.8 9.5-.6 9.5 5.6-4.3 13.7-9.5 16.8zm0-1.5c.8-.5 1.6-1.1 2.3-1.8l-2.3-7-2.3 9.7c.8-.1 1.6-.5 2.3-.9zm-4.2 1.1L97 93.5c-.4 1.4-.7 2.9-.7 4.3-.1 3.6 1.6 5.8 4 6zm4.2-20.5c-3.1 2-5.5 5-6.9 8.4l1.9-1.1c.1-.1.3-.1.4 0 .1.1.1.1.1.2 0 .3-.2.6-.4.7l-.6.4 2.9 8.6 2-8.5-.8-2.4v-.1l-.6.4c-.1.1-.3.1-.4 0-.1-.1-.1-.1-.1-.2 0-.3.2-.6.4-.7l3.3-1.9c.1-.1.3-.1.4 0 .1.1.1.1.1.2 0 .3-.2.6-.4.7l-.6.3 2.8 8.6 1.6-6.9c.4-1.9.1-2.4-.3-2.9-.3-.4-.5-.9-.5-1.4 0-1.1.5-2.1 1.3-2.7.1-.1.2-.1.2-.1-1.4-1.1-3.5-1-5.8.4zm7.5 1.4L108.6 99c2.5-3.1 3.9-6.9 4.1-10.8.1-1.3-.2-2.4-.7-3.5z" fill-rule="evenodd" clip-rule="evenodd" fill="#fce7f3"/></g><g id="watch"><g id="Grupa_58"><path id="Elipsa_1378" class="st0" d="M27 26.1c0 7.7-5.4 17-12 20.8s-12 .7-12-7 5.4-17 12-20.8c1.4-.9 3-1.4 4.6-1.6"/><path id="Kształt_1385" d="M20.2 17.4l-4.9-1.8" fill-rule="evenodd" clip-rule="evenodd" fill="#fff" stroke="#db2777" stroke-linecap="round" stroke-linejoin="round"/><path id="Kształt_1386" class="st0" d="M20.1 17.6l-3.2 4.1"/></g><path class="st14" d="M13.6 35.2c0 1 .5 1.3 1.1.9.4-.4.7-.9.8-1.4l.2-2-1.5.6c-.4.5-.6 1.2-.6 1.9z"/><path class="st14" d="M14.2 33.1c.1-.2.3-.4.4-.5.6-.5 1.1-.1 1.1.9 0 .4-.1.8-.2 1.1l5.4-11.3-6.7 9.8z"/></g></svg>