<svg width="20" height="20" viewBox="0 0 20 20" fill="none" xmlns="http://www.w3.org/2000/svg"><path fill-rule="evenodd" clip-rule="evenodd" d="M9.158 6.667a2.497 2.497 0 11-4.992 0 2.497 2.497 0 114.992 0zm6.667 0a2.497 2.497 0 11-4.992 0 2.497 2.497 0 114.992 0zm-9.158 4.166c-1.942 0-5.834.975-5.834 2.917V15c0 .458.375.833.834.833h10A.836.836 0 0012.5 15v-1.25c0-1.942-3.892-2.917-5.833-2.917zm5.858.042c.292-.025.567-.042.808-.042 1.942 0 5.834.975 5.834 2.917V15a.836.836 0 01-.834.833h-4.316c.091-.258.15-.541.15-.833v-1.25c0-1.225-.659-2.15-1.609-2.842l-.008-.01a.076.076 0 00-.025-.023z" fill="#637381"/></svg>