<svg width="20" height="20" viewBox="0 0 20 20" fill="none" xmlns="http://www.w3.org/2000/svg"><path fill-rule="evenodd" clip-rule="evenodd" d="M12.611 4.436a5.863 5.863 0 013.842 3.842c.158.525.633.892 1.175.892h.033c.833 0 1.433-.8 1.192-1.592a8.373 8.373 0 00-5.55-5.55c-.784-.242-1.584.358-1.584 1.192v.033c0 .55.367 1.025.892 1.183zm3.842 7.292a5.845 5.845 0 01-3.842 3.842 1.238 1.238 0 00-.892 1.175v.033c0 .834.8 1.434 1.592 1.192a8.373 8.373 0 005.55-5.55 1.236 1.236 0 00-1.183-1.592h-.042a1.258 1.258 0 00-1.183.9zm-7.308 3.834c.533.166.908.641.908 1.2 0 .841-.808 1.458-1.608 1.208a8.337 8.337 0 01-5.892-7.967 8.337 8.337 0 015.892-7.967c.8-.25 1.608.367 1.608 1.2v.009c0 .558-.375 1.033-.908 1.2-2.367.741-4.092 2.95-4.092 5.558 0 2.608 1.725 4.817 4.092 5.559z" fill="#637381"/></svg>