<svg width="20" height="20" viewBox="0 0 20 20" fill="none" xmlns="http://www.w3.org/2000/svg"><path fill-rule="evenodd" clip-rule="evenodd" d="M7.858 1.812c0-.538.44-.979.979-.979.538 0 .979.44.979.98v7.831c0 .539-.44.98-.98.98a.982.982 0 01-.978-.98V1.812zm-3.916 20.56H5.9v-1.959H3.942v1.958zm3.916-1.959v1.958h1.958v-1.958H7.858zM12.694 3.83l-.02.02c-.401.4-.352 1.057.079 1.429 1.478 1.312 2.28 3.358 1.84 5.58-.45 2.232-2.242 4.053-4.464 4.523a5.884 5.884 0 01-7.166-5.737c0-1.742.763-3.3 1.967-4.376.421-.382.46-1.018.069-1.42l-.02-.02a.97.97 0 00-1.331-.038C1.68 5.523.593 8.225 1.142 11.152c.577 3.084 3.044 5.58 6.128 6.177a7.84 7.84 0 009.399-7.685 7.818 7.818 0 00-2.653-5.864.969.969 0 00-1.322.049zm1.038 18.542h-1.958v-1.958h1.958v1.958z" fill="#637381"/></svg>