<svg width="20" height="20" viewBox="0 0 20 20" fill="none" xmlns="http://www.w3.org/2000/svg"><path fill-rule="evenodd" clip-rule="evenodd" d="M16.986 10c0 .283-.025.55-.059.817l1.759 1.375c.158.125.2.35.1.533l-1.667 2.883a.407.407 0 01-.508.184l-2.075-.834c-.434.325-.9.609-1.409.817l-.316 2.208c-.025.2-.2.35-.409.35H9.07a.406.406 0 01-.408-.35l-.317-2.208a6.092 6.092 0 01-1.408-.817l-2.075.834a.419.419 0 01-.509-.184l-1.666-2.883a.42.42 0 01.1-.533l1.758-1.375A6.607 6.607 0 014.486 10c0-.275.025-.55.058-.817L2.786 7.808a.41.41 0 01-.1-.533l1.666-2.883a.407.407 0 01.509-.184l2.075.834c.433-.325.9-.609 1.408-.817l.317-2.208c.025-.2.2-.35.408-.35h3.333c.209 0 .384.15.409.35l.316 2.208c.509.208.975.483 1.409.817l2.075-.834a.419.419 0 01.508.184l1.667 2.883a.42.42 0 01-.1.533l-1.759 1.375a6.5 6.5 0 01.059.817zm-9.167 0a2.92 2.92 0 002.917 2.917A2.92 2.92 0 0013.652 10a2.92 2.92 0 00-2.916-2.917A2.92 2.92 0 007.819 10z" fill="#637381"/></svg>