<svg width="40" height="40" viewBox="0 0 40 40" fill="none" xmlns="http://www.w3.org/2000/svg"><path d="M27.5.8H4.925A4.13 4.13 0 00.8 4.925V31.25a1.125 1.125 0 001.95.764l7.992-8.639H27.5a4.13 4.13 0 004.125-4.125V4.925A4.13 4.13 0 0027.5.8zM14 17.997H5.675a1.125 1.125 0 010-2.25H14a1.125 1.125 0 010 2.25zm12.75-5.149H5.675a1.125 1.125 0 010-2.25H26.75a1.125 1.125 0 010 2.25zm0-5.148H5.675a1.125 1.125 0 010-2.25H26.75a1.125 1.125 0 010 2.25z" fill="#50248F"/><path d="M35.075 7.625h-1.2V19.25a6.382 6.382 0 01-6.375 6.375H11.726l-2.603 2.814A4.122 4.122 0 0012.5 30.2h16.758l7.991 8.639a1.125 1.125 0 001.951-.764V11.75a4.13 4.13 0 00-4.125-4.125z" fill="#50248F"/></svg>