<svg width="42" height="42" viewBox="0 0 42 42" fill="none" xmlns="http://www.w3.org/2000/svg"><g fill="#50248F" fill-opacity=".5"><path d="M21.433 3.667h-1.906A4.788 4.788 0 0014.933.2a4.788 4.788 0 00-4.593 3.467H8.433c-.71 0-1.3.589-1.3 1.3v2.6a3.048 3.048 0 003.034 3.033H19.7a3.048 3.048 0 003.033-3.033v-2.6c0-.711-.589-1.3-1.3-1.3z"/><path d="M24.9 5.4h-.433v2.167a4.764 4.764 0 01-4.767 4.766h-9.533A4.764 4.764 0 015.4 7.567V5.4h-.433A4.764 4.764 0 00.2 10.167v21.666A4.764 4.764 0 004.967 36.6h12.792l.381-2.132a4.827 4.827 0 011.317-2.548l1.387-1.387H6.7c-.71 0-1.3-.589-1.3-1.3 0-.71.59-1.3 1.3-1.3h16.467c.086 0 .156 0 .242.035h.018l6.24-6.24V10.167A4.764 4.764 0 0024.9 5.4zm-1.733 19.5H6.7c-.71 0-1.3-.59-1.3-1.3 0-.71.59-1.3 1.3-1.3h16.467c.71 0 1.3.59 1.3 1.3 0 .71-.59 1.3-1.3 1.3zm0-5.633H6.7c-.71 0-1.3-.59-1.3-1.3 0-.711.59-1.3 1.3-1.3h16.467c.71 0 1.3.589 1.3 1.3 0 .71-.59 1.3-1.3 1.3zM21.914 41.8a1.297 1.297 0 01-1.28-1.527l.92-5.209c.044-.261.172-.504.36-.693l12.87-12.868c1.58-1.585 3.133-1.157 3.983-.307l2.144 2.144a3.035 3.035 0 010 4.29L28.04 40.5a1.28 1.28 0 01-.693.36l-5.21.92c-.074.013-.15.02-.224.02zm5.208-2.219h.018-.018z"/></g></svg>