<svg width="40" height="40" viewBox="0 0 40 40" fill="none" xmlns="http://www.w3.org/2000/svg"><path d="M3.6 1.3h12c1.268 0 2.3 1.032 2.3 2.3v7.2c0 1.268-1.032 2.3-2.3 2.3h-12a2.303 2.303 0 01-2.3-2.3V3.6c0-1.268 1.032-2.3 2.3-2.3zm0 16h12c1.268 0 2.3 1.032 2.3 2.3v16.8c0 1.268-1.032 2.3-2.3 2.3h-12a2.303 2.303 0 01-2.3-2.3V19.6c0-1.268 1.032-2.3 2.3-2.3zm20.8 9.6h12c1.268 0 2.3 1.032 2.3 2.3v7.2c0 1.268-1.032 2.3-2.3 2.3h-12a2.303 2.303 0 01-2.3-2.3v-7.2c0-1.268 1.032-2.3 2.3-2.3zm0-25.6h12c1.268 0 2.3 1.032 2.3 2.3v16.8c0 1.268-1.032 2.3-2.3 2.3h-12a2.303 2.303 0 01-2.3-2.3V3.6c0-1.268 1.032-2.3 2.3-2.3z" fill="#50248F" stroke="#000"/></svg>