<svg width="20" height="20" viewBox="0 0 20 20" fill="none" xmlns="http://www.w3.org/2000/svg"><g clip-path="url(#clip0)" fill="#DE3618"><path d="M8.612 2.673h2.786v.468h1.006v-.534a.941.941 0 00-.94-.94H8.546a.941.941 0 00-.94.94v.534h1.006v-.468zm6.115 4.454H5.283a.443.443 0 00-.441.48l.79 9.762c.043.545.498.964 1.044.964h6.658c.546 0 1.001-.42 1.045-.964l.79-9.763a.443.443 0 00-.442-.479zM7.57 17.292a.503.503 0 01-.533-.471l-.495-8.015a.503.503 0 011.004-.061l.495 8.014a.503.503 0 01-.471.533zm2.944-.502a.503.503 0 01-1.006 0V8.775a.503.503 0 111.006 0v8.015zm2.954-7.985l-.472 8.015a.503.503 0 11-1.004-.06l.472-8.014a.502.502 0 111.004.059zm2.999-3.23l-.33-.99a.64.64 0 00-.607-.437H4.48a.64.64 0 00-.607.437l-.33.99a.414.414 0 00.394.546h12.135a.414.414 0 00.394-.546z"/></g><defs><clipPath id="clip0"><path fill="#fff" transform="translate(1.667 1.667)" d="M0 0h16.667v16.667H0z"/></clipPath></defs></svg>