<svg width="44" height="28" viewBox="0 0 44 28" fill="none" xmlns="http://www.w3.org/2000/svg"><path fill-rule="evenodd" clip-rule="evenodd" d="M19.98 6c0 3.32-2.66 6-5.98 6-3.32 0-6-2.68-6-6s2.68-6 6-6 5.98 2.68 5.98 6zm16 0c0 3.32-2.66 6-5.98 6-3.32 0-6-2.68-6-6s2.68-6 6-6 5.98 2.68 5.98 6zM14 16c-4.66 0-14 2.34-14 7v3c0 1.1.9 2 2 2h24c1.1 0 2-.9 2-2v-3c0-4.66-9.34-7-14-7zm14.06.1c.7-.06 1.36-.1 1.94-.1 4.66 0 14 2.34 14 7v3c0 1.1-.9 2-2 2H31.64c.22-.62.36-1.3.36-2v-3c0-2.94-1.58-5.16-3.86-6.82a.24.24 0 01-.019-.023.183.183 0 00-.061-.057z" fill="#50248F"/></svg>