<svg width="20" height="20" viewBox="0 0 20 20" fill="none" xmlns="http://www.w3.org/2000/svg"><path fill-rule="evenodd" clip-rule="evenodd" d="M4.808 5.1a4.998 4.998 0 015.733 3.234h6.958c.917 0 1.667.75 1.667 1.667 0 .916-.75 1.666-1.667 1.666v1.667c0 .917-.75 1.667-1.666 1.667-.917 0-1.667-.75-1.667-1.667v-1.667H10.54a4.992 4.992 0 01-4.708 3.334A5.005 5.005 0 01.949 8.917c.4-1.908 1.95-3.433 3.859-3.816zM4.166 10c0 .917.75 1.667 1.666 1.667.917 0 1.667-.75 1.667-1.666 0-.917-.75-1.667-1.667-1.667-.916 0-1.666.75-1.666 1.667z" fill="#919EAB"/></svg>