<svg width="40" height="40" viewBox="0 0 40 40" fill="none" xmlns="http://www.w3.org/2000/svg"><path fill-rule="evenodd" clip-rule="evenodd" d="M35.004 20c0 .68-.06 1.32-.14 1.96l4.22 3.3c.38.3.48.84.24 1.28l-4 6.92c-.24.44-.76.62-1.22.44l-4.98-2c-1.04.78-2.16 1.46-3.38 1.96l-.76 5.3c-.06.48-.48.84-.98.84h-8c-.5 0-.92-.36-.98-.84l-.76-5.3c-1.22-.5-2.34-1.16-3.38-1.96l-4.98 2c-.44.16-.98 0-1.22-.44l-4-6.92c-.24-.44-.14-.98.24-1.28l4.22-3.3c-.08-.64-.14-1.3-.14-1.96 0-.66.06-1.32.14-1.96l-4.22-3.3c-.38-.3-.5-.84-.24-1.28l4-6.92c.24-.44.76-.62 1.22-.44l4.98 2c1.04-.78 2.16-1.46 3.38-1.96l.76-5.3c.06-.48.48-.84.98-.84h8c.5 0 .92.36.98.84l.76 5.3c1.22.5 2.34 1.16 3.38 1.96l4.98-2c.44-.16.98 0 1.22.44l4 6.92c.24.44.14.98-.24 1.28l-4.22 3.3c.08.64.14 1.28.14 1.96zm-22 0c0 3.86 3.14 7 7 7s7-3.14 7-7-3.14-7-7-7-7 3.14-7 7z" fill="#50248F" fill-opacity=".5"/></svg>