<?xml version="1.0" encoding="utf-8"?>
<!-- Generator: Adobe Illustrator 25.0.0, SVG Export Plug-In . SVG Version: 6.00 Build 0)  -->
<svg version="1.1" xmlns="http://www.w3.org/2000/svg" xmlns:xlink="http://www.w3.org/1999/xlink" x="0px" y="0px"
	 viewBox="0 0 1100 800" style="enable-background:new 0 0 1100 800;" xml:space="preserve">
<style type="text/css">
	.st0{fill:none;}
	.st1{opacity:0.04;fill:#272525;}
	.st2{fill:#EC4899;}
	.st3{fill:#EAC5B0;}
	.st4{fill:#3B455A;}
	.st5{fill:#F9A8D4;}
	.st6{opacity:0.1;fill:#F9A8D4;}
	.st7{fill:#F472B6;}
	.st8{fill:#305399;}
	.st9{opacity:0.1;}
	.st10{fill:#D7E8F4;}
	.st11{fill:#F7F7F7;}
</style>
<g id="background">
	<rect class="st0" width="1100" height="800"/>
</g>
<g id="object">
	<g>
		<path class="st1" d="M278.34,596.44c-20.42,0.4-40.85,0.71-61.26,0.79c-36.38,0.14-84.08-6.58-111.23,19
			c-13.67,12.88-9.17,38.58,12.52,43.13c6.14,1.29,12.75,1.15,18.5,3.34c5.76,2.19,10.32,8.17,7.13,12.73
			c-1.63,2.33-4.78,3.58-7.79,4.56c-19.07,6.2-40.2,6.98-59.17,13.39c-45.07,15.22-37.29,45.81,3.68,55.68
			c36.85,8.88,77.83,7.65,115.82,8.25c222.34,3.52,445.28,7.7,666.38-4.16c47.68-2.56,95.09-5.79,142.57-8.8
			c21.73-1.38,48.92-4.97,49.01-13.01c0.06-5.6-14.28-9.78-28.42-11.97c-24.76-3.83-57.09-7.16-52.41-19.69
			c1.71-4.57,9.77-8.76,20.96-10.9c8.65-1.65,18.59-2.09,27.97-3.09c9.37-1,18.99-2.83,22.93-6.08c10.61-8.78-16.12-14-34.93-14.8
			c-22.54-0.96-40.91-7.13-33.14-16.44c5.41-6.48,23.02-10.87,28.38-17.36c2.15-2.61,2.15-5.42,0.72-8.09
			c-14.3-26.73-89.03-24.44-116.88-26.44c-51.52-3.7-103.27-4.41-154.95-4.74c-117.24-0.75-234.48,0.5-351.69,2.45
			C348.14,594.77,313.24,595.75,278.34,596.44z"/>
		<g>
			<g>
				<g>
					<polygon class="st2" points="198.32,689.02 206.99,697.38 222.37,708.38 222.05,701.36 215.03,691.68 199.65,680.67 					"/>
					<polygon class="st2" points="212.15,432.7 208.12,458.07 224.47,573.38 197.87,686.19 213.92,692.14 274.34,559.63 
						279.57,518.37 277.26,432.16 					"/>
				</g>
				<g>
					<polygon class="st2" points="320.64,431.69 330.81,539.17 322.04,679.57 306.45,680.86 285.99,553.69 254.03,427.46 					"/>
					<polygon class="st2" points="316.36,687.43 323.92,694.46 331.65,685.33 322.52,677.6 305.66,679 					"/>
				</g>
				<g>
					<path class="st3" d="M249.48,301.56c-4.56,1.72-9.12,3.44-13.68,5.17c-1.77-3.46-3.26-7.07-4.45-10.77
						c-4.25,0.52-9.39,0.68-11.9-2.79c-0.79-1.1-1.19-2.42-1.57-3.71c-1.59-5.35-3.18-10.7-4.77-16.05c-0.55-1.85-1.1-3.76-0.9-5.68
						c0.36-3.37,2.96-6.05,5.69-8.05c6.98-5.1,16.11-7.57,24.5-5.5c2.23,0.55,4.45,1.44,6.11,3.04c2.55,2.46,3.39,6.16,4.1,9.63
						c0.66,3.21,1.32,6.41,1.98,9.62c0.76,3.69,1.36,8.01-1.18,10.79c-1.35,1.48-3.41,2.26-4.45,3.97
						C247.14,294.25,249.47,298.03,249.48,301.56z"/>
					<path class="st4" d="M269.19,230.59c0.14-1.6,0.36-3.19,0.71-4.75c0.76-3.38,2.15-6.64,2.4-10.1c0.25-3.46-0.99-7.36-4.11-8.89
						c-2.01-0.99-4.38-0.8-6.58-0.42c-7.26,1.27-14.16,4.53-19.76,9.33c-5.33,4.57-9.51,9.84-16.79,10.59
						c-6.83,0.7-10.57,3.64-15.53,8.78c-5.37,5.56-13.86,10.44-18.13,16.65c-1.79,2.59-2.69,5.71-3.05,8.84
						c-1.25,10.84,4.32,22.17,13.67,27.79c2.1,1.26,4.35,2.25,6.63,3.13c4.73,1.81,10.45,4.11,15.3,3.25
						c-1.77-3.84-11.14-14.07-9.77-18.62c2.18-7.21,13.46-10.66,19.79-12.28c6.9-1.77,14.66-0.1,21.32-2.22
						c4.79-1.53,9.4-6.53,12.05-10.71C270.61,245.81,268.68,236.44,269.19,230.59z"/>
				</g>
				<path class="st5" d="M192.53,488.08c0.93,9.81,2.79,22.96,6.6,23c0.71,0.01,1.35-0.42,1.93-0.83c6.08-4.31,10.1-9.84,16.1-14.02
					c6.29-4.38,13.75-7.19,21.13-9.41c11.02-3.38,22.39-6,33.84-7.55c12.43-1.68,36.98-2.07,36.98-2.07c6.87-2,13.27-5.2,19.72-8.22
					c11.08-5.2,22.45-9.96,32.64-16.61c3.27-2.13,12.24-8.36,8.28-12.58c-3-3.19-12.07-4.51-16.29-6.19
					c-13.74-5.49-26.04-13.6-34.87-25.68c-12.1-16.55-20.81-38.16-27.46-57.5c-1.23-3.58-2.37-7.19-3.46-10.82
					c-0.62-2.06-1.55-10.01-3.24-11.15c-17.15-11.56-23.1-22.75-41.62-17.62c-42.26,11.71-38.98,13.26-46.11,35.47
					c-2.87,8.93-5.43,32.32-5.84,41.61c-0.49,11.25-0.87,41.34-0.86,52.6c0.02,12.56,0.49,25.12,1.74,37.62
					C191.85,479.52,192.09,483.42,192.53,488.08z"/>
				<g>
					<polygon class="st2" points="268.46,285.84 291.92,315.02 218.45,345.9 209.05,331.4 					"/>
					<polygon class="st2" points="223.9,301.46 242.27,303.34 273.66,318.58 303.3,439.59 252.89,443.28 241.73,337.52 
						212.48,327.51 203.7,320.79 					"/>
				</g>
			</g>
			<g>
				<g>
					<path class="st5" d="M746.64,168.02c-36.65-39.78-94.89-48.93-139.97-23.64c-0.08,0.05-0.17,0.07-0.26,0.11
						c-13.51,9.28-23.28,23.39-24.45,42.27c-0.26,4.15-6.4,3.86-6.14-0.32c1.26-20.24,11.21-35.57,25.22-45.9
						c-30.56-53.01-92-81.11-147.92-63.09c-55.03,17.73-89.86,73.84-86.93,134.51c4.99,0.07,10.01,0.62,15.01,1.73
						c19.88,4.41,37.25,16.02,51.34,31.53c2.79,3.07-1.61,7.47-4.38,4.42c-4.63-5.1-9.72-9.75-15.19-13.81
						c-20.33-15.05-45.67-20.87-69.32-14.06c-23.89,6.88-46.67,26.79-58.49,49.44c-13.54,25.95-16.69,57.45-7.26,86.19
						c9.26,28.21,29.7,51.71,55.63,63.83c24.04,11.24,49.31,12.95,74.57,8.03c16.56-3.23,33.04-6.88,49.51-10.54
						c47.08-10.46,94.05-21.4,141-32.41c20.63-4.84,41.25-9.7,61.87-14.57c16.94-4.01,35.1-6.8,50.97-14.18
						c51.9-24.13,80.58-87.14,60.93-145.83C766.94,195.44,758.1,180.45,746.64,168.02z"/>
				</g>
				<path class="st6" d="M772.39,212.44c-0.33-1-0.68-1.99-1.04-2.98c5.32,29.6-2.24,59.69-26.02,79.63
					c-24.43,20.49-51.61,38.81-80.91,49.52c-76.93,28.1-160.71,49.74-240.18,69.74c-25.36,6.41-49.54,10.62-80.89,16.12
					c-0.26,0.04-0.38,0.37-0.57,0.58c18.13,6.47,37.05,8.24,56.23,6.39c3.03-0.39,6.06-0.89,9.09-1.48
					c16.56-3.23,33.04-6.88,49.51-10.54c46.21-10.27,92.31-21,138.39-31.8c5.78-1.37,11.56-2.74,17.33-4.12
					c21.34-5.08,42.68-10.18,64.02-15.29c6.23-1.5,12.62-2.86,19.01-4.31c5.17-1.56,10.24-3.39,15.09-5.64
					C763.36,334.14,792.04,271.13,772.39,212.44z"/>
			</g>
			<g>
				<polygon class="st7" points="916.93,682.43 917.72,690.31 903.4,700.12 895.06,693.21 901.82,684.36 916.14,674.56 				"/>
				<polygon class="st7" points="916.81,441.6 919.21,465.53 897.67,547.7 917.47,679.79 902.8,684.83 864.24,555.85 858.14,518.33 
					858.45,438.92 				"/>
			</g>
			<g>
				<polygon class="st7" points="803.97,468.15 834.61,689.5 848.63,689.51 851.29,547.65 876.92,448.11 				"/>
				<polygon class="st7" points="848.55,691.8 848.54,695.71 843.37,703.65 825.8,695.69 833.39,687.75 848.55,687.76 				"/>
			</g>
			<path class="st5" d="M839.05,306.33c10.59-8.75,36.08-3.69,49.5-3.67c2.77,29.44,8.13,58.85,14.71,87.65
				c5.68,24.89,16.54,49.15,21.36,74.01c4.3,22.16,13.69,38.1,31.37,53.3c2.75,2.37,5.93,5.44,5.1,8.98
				c-0.5,2.13-2.35,3.65-4.16,4.88c-17.85,12.22-40.79,13.47-62.42,13.82c-16.43,0.26-32.86,0.24-49.28-0.08
				c-21.4-0.41-45.2-2.95-63.44-15.34c-1.15-0.78-2.38-1.79-2.47-3.18c-0.07-1.19,0.73-2.23,1.43-3.2
				c12.76-17.6,11.32-46.72,13.82-67.34c2.83-23.26,5.66-46.6,11.24-69.36c3.62-14.77,8.39-29.25,14.24-43.28
				c4.45-10.68,9.77-28.18,18.13-36.4C838.46,306.84,838.75,306.58,839.05,306.33z"/>
			<g>
				<path class="st8" d="M827.09,210.47c-6.07-10.21-15.01-18.11-25.85-22.83c-7.33-3.2-14.98-3.98-22.37-4.74l-21.5-2.21
					c-9.99-1.03-18.98-0.04-27.46,3.02c-10.82,3.91-20.69,11.94-27.1,22.03c-4.64,7.32-7.47,15.58-8.39,24.56l-11.69,113.65
					l17.09,1.76l11.75-114.22c0.46-4.46,1.26-7.46,3.19-11.88c1.5-3.43,4.79-8.24,7.49-10.94c3.61-3.61,6.86-5.86,11.61-8.03
					c4.32-1.98,8.52-2.98,14.02-3.33c0.23-0.01,0.97-0.04,2.82,0.03c0.77,0.03,1.6,0.09,2.61,0.19l30.1,3.1
					c4.55,0.47,7.58,1.28,12,3.2c3.43,1.5,8.24,4.79,10.94,7.5c3.61,3.61,5.86,6.86,8.03,11.61c1.98,4.32,2.98,8.52,3.33,14.02
					c0.01,0.23,0.04,0.97-0.03,2.82c-0.03,0.77-0.09,1.59-0.19,2.58l-11.75,114.25l17.09,1.76l11.75-114.22
					C835.81,232.41,833.21,220.76,827.09,210.47z"/>
				<g>
					<path class="st8" d="M667.6,299.23l-12.75,123.92c-1.72,16.76,10.47,31.75,27.23,33.47l114.08,11.73
						c16.76,1.72,31.75-10.47,33.47-27.23l12.75-123.92L667.6,299.23z M752.65,388.23l-3.07,29.84c-0.23,2.22-3,3.75-6.18,3.42
						l-0.12-0.01c-3.19-0.33-5.58-2.39-5.36-4.61l3.07-29.84c-9.6-3.59-15.96-13.31-14.86-23.99c1.3-12.69,12.65-21.91,25.33-20.61
						c12.69,1.3,21.91,12.65,20.61,25.33C770.98,378.44,762.78,386.66,752.65,388.23z"/>
				</g>
				<path class="st9" d="M677.01,455.39L677.01,455.39c1.63,0.45,3.33,0.78,5.07,0.96l114.08,11.73
					c16.76,1.72,31.75-10.47,33.47-27.23l5.79-56.3C816.27,472.15,677.65,455.37,677.01,455.39z"/>
			</g>
			<polygon class="st3" points="339.75,301.32 344.5,288.66 351.1,283.72 353.3,285.37 351.1,290.32 360.45,282.63 364.84,287.03 
				359.33,301.32 347.83,308.77 			"/>
			<polygon class="st10" points="206.16,325.6 297.63,346.81 336.58,298.2 352.5,312.71 312.34,376.89 204.66,372.69 196.72,347.33 
							"/>
			<polygon class="st11" points="893.65,312.71 827.68,358.09 787.14,332.69 778.43,345.73 826.2,387.79 892.16,355.25 			"/>
			<g>
				<path class="st4" d="M870.39,269.46c-8.62,1.25-15.5,4.8-17.49,13.29c-4.03-4.81-5.55-11.62-3.94-17.69
					c1.61-6.07,6.29-11.23,12.17-13.42c4.83,3.39,8.24,8.74,9.26,14.55L870.39,269.46z"/>
				<path class="st3" d="M861.05,308.93c-6.34-2.99-10.37-9.71-11.52-16.62c-1.15-6.92,0.22-14.02,2.37-20.7
					c7.13-22.22,35.07-14.75,40.94,4.68C897.94,293.22,879.49,317.62,861.05,308.93z"/>
				<path class="st4" d="M868.66,464.21c-4.03-3.07-3.56-9.1-4.6-14.06c-1.04-4.96-7.28-9.9-10.58-6.05
					c-7.01-2.89-10.68-11.01-10.65-18.58c0.03-7.58,3.02-14.79,5.96-21.77c6.52-15.48,12.61-31.21,19.58-46.49
					c6.58-14.44,9.2-30.34,11.87-45.72c1.33-7.71-0.49-15.69-3.72-22.81c-3.23-7.12-7.83-13.53-12.34-19.92
					c-1.88-2.66-3.81-5.49-4.08-8.73c-0.3-3.59,1.56-7.1,4.2-9.54c4.07-3.76,8.54-5.32,13.91-4.78
					c18.86,1.89,31.61,14.76,34.66,33.78c2.58,16.08-1.59,32.36-4.61,48.37c-4.53,24.07-3.03,52.73,8.71,74.49
					c4.79,8.87,10.1,17.83,11.25,27.84c1.15,10.01-3.23,21.5-12.69,24.99c-3.69,1.36-7.89,1.43-11.22,3.53
					c-3.5,2.21-4.29,6.64-1.77,9.78c-4.99,6.64-8.91,0.86-13.93-1.15C882.49,464.91,873.82,468.14,868.66,464.21z"/>
			</g>
			<polygon class="st3" points="785.18,335.62 782.07,327.62 767.59,324.71 765.41,330.5 775.54,339.2 781.56,341.05 			"/>
		</g>
	</g>
</g>
</svg>
