<svg width="20" height="19" viewBox="0 0 20 19" fill="none" xmlns="http://www.w3.org/2000/svg"><path fill-rule="evenodd" clip-rule="evenodd" d="M4.107 3.902c3.259-3.096 8.527-3.096 11.786 0 3.258 3.096 3.258 8.1 0 11.196-3.259 3.096-8.527 3.096-11.786 0-3.258-3.096-3.258-8.1 0-11.196zm5.062 9.623c0 .436.371.79.831.79.454-.006.83-.365.83-.79v-3.236h3.407c.46 0 .83-.352.83-.789 0-.437-.37-.79-.83-.79H10.83V5.476c0-.437-.371-.79-.831-.79a.853.853 0 00-.588.232.769.769 0 00-.243.558v3.236H5.763a.853.853 0 00-.588.23.769.769 0 00-.243.559c0 .437.372.79.831.79H9.17v3.235z" fill="#ec4899"/></svg>
