<svg width="309" height="92" viewBox="0 0 309 92" fill="none" xmlns="http://www.w3.org/2000/svg">
<g clip-path="url(#clip0)">
<path d="M146.973 13.1995C149.474 15.2058 151.091 17.9261 151.824 21.3454H144.156C143.589 19.9576 142.72 18.8715 141.55 18.077C140.375 17.2875 138.989 16.8903 137.377 16.8903C135.258 16.8903 133.55 17.6697 132.25 19.2234C130.949 20.7822 130.301 22.8589 130.301 25.4586C130.301 28.0633 130.949 30.135 132.25 31.6736C133.55 33.2173 135.258 33.9867 137.377 33.9867C138.989 33.9867 140.38 33.5894 141.55 32.8C142.72 32.0105 143.589 30.9345 144.156 29.5768H151.824C151.091 32.971 149.474 35.6812 146.973 37.7026C144.472 39.724 141.314 40.7347 137.502 40.7347C134.595 40.7347 132.039 40.0911 129.834 38.8039C127.63 37.5166 125.928 35.7164 124.727 33.3933C123.527 31.0753 122.925 28.4304 122.925 25.4586C122.925 22.4868 123.527 19.8419 124.727 17.5239C125.928 15.2058 127.63 13.4006 129.834 12.1133C132.039 10.8261 134.595 10.1824 137.502 10.1824C141.319 10.1875 144.472 11.1931 146.973 13.1995Z" fill="black"/>
<path d="M169.536 17.7401C170.837 18.5597 171.796 19.676 172.419 21.094V16.8098H179.62V40.4833H172.419V36.1992C171.796 37.6121 170.837 38.7335 169.536 39.5531C168.236 40.3727 166.684 40.785 164.876 40.785C162.928 40.785 161.18 40.2973 159.644 39.3218C158.102 38.3463 156.887 36.9383 155.998 35.098C155.109 33.2576 154.662 31.1105 154.662 28.6466C154.662 26.1576 155.109 24.0004 155.998 22.1751C156.887 20.3498 158.102 18.9519 159.644 17.9764C161.185 17.0009 162.928 16.5132 164.876 16.5132C166.684 16.5132 168.236 16.9205 169.536 17.7401ZM163.455 24.4027C162.506 25.4184 162.034 26.8364 162.034 28.6466C162.034 30.4568 162.506 31.8698 163.455 32.8905C164.399 33.9113 165.65 34.4191 167.206 34.4191C168.733 34.4191 169.983 33.8962 170.957 32.8503C171.932 31.8044 172.419 30.4015 172.419 28.6516C172.419 26.8716 171.932 25.4636 170.957 24.4278C169.983 23.397 168.733 22.8791 167.206 22.8791C165.655 22.874 164.404 23.3869 163.455 24.4027Z" fill="black"/>
<path d="M204.6 17.9764C206.141 18.9519 207.351 20.3548 208.245 22.1751C209.134 24.0004 209.581 26.1575 209.581 28.6466C209.581 31.1054 209.134 33.2575 208.245 35.0979C207.357 36.9383 206.141 38.3412 204.6 39.3218C203.058 40.2973 201.316 40.785 199.367 40.785C197.559 40.785 196.008 40.3777 194.707 39.5531C193.407 38.7334 192.462 37.6171 191.87 36.1991V51.7719H184.624V16.8098H191.87V21.094C192.462 19.681 193.412 18.5647 194.707 17.7401C196.008 16.9204 197.559 16.5081 199.367 16.5081C201.316 16.5131 203.058 17.0009 204.6 17.9764ZM193.286 24.4227C192.312 25.4536 191.825 26.8615 191.825 28.6466C191.825 30.4015 192.312 31.7993 193.286 32.8452C194.26 33.8911 195.511 34.4141 197.037 34.4141C198.589 34.4141 199.839 33.9062 200.788 32.8855C201.732 31.8697 202.209 30.4517 202.209 28.6415C202.209 26.8313 201.737 25.4183 200.788 24.3976C199.844 23.3768 198.594 22.869 197.037 22.869C195.511 22.874 194.26 23.3919 193.286 24.4227Z" fill="black"/>
<path d="M214.342 7.67327C215.005 6.97936 215.879 6.6324 216.968 6.6324C218.058 6.6324 218.932 6.97936 219.595 7.67327C220.257 8.36719 220.589 9.24212 220.589 10.2981C220.589 11.3289 220.257 12.1938 219.595 12.8826C218.932 13.5766 218.053 13.9235 216.968 13.9235C215.879 13.9235 215.005 13.5766 214.342 12.8826C213.679 12.1887 213.348 11.3289 213.348 10.2981C213.348 9.24212 213.679 8.36719 214.342 7.67327ZM220.594 16.8098V40.4833H213.348V16.8098H220.594Z" fill="black"/>
<path d="M146.973 57.0015C149.474 59.0078 151.091 61.7281 151.824 65.1474H144.156C143.589 63.7596 142.72 62.6735 141.55 61.879C140.375 61.0895 138.989 60.6923 137.377 60.6923C135.258 60.6923 133.55 61.4717 132.25 63.0255C130.949 64.5842 130.301 66.661 130.301 69.2606C130.301 71.8653 130.949 73.937 132.25 75.4757C133.55 77.0194 135.258 77.7887 137.377 77.7887C138.989 77.7887 140.38 77.3915 141.55 76.602C142.72 75.8126 143.589 74.7365 144.156 73.3788H151.824C151.091 76.773 149.474 79.4833 146.973 81.5047C144.472 83.5261 141.314 84.5368 137.502 84.5368C134.595 84.5368 132.039 83.8931 129.834 82.6059C127.63 81.3186 125.928 79.5185 124.727 77.1954C123.527 74.8773 122.925 72.2324 122.925 69.2606C122.925 66.2889 123.527 63.6439 124.727 61.3259C125.928 59.0078 127.63 57.2026 129.834 55.9154C132.039 54.6281 134.595 53.9845 137.502 53.9845C141.319 53.9895 144.472 54.9901 146.973 57.0015Z" fill="black"/>
<path d="M166.636 61.6225C168.062 60.7727 169.609 60.3503 171.276 60.3503V68.1141H169.197C167.273 68.1141 165.787 68.5264 164.728 69.346C163.668 70.1657 163.141 71.5535 163.141 73.5045V84.2802H155.895V60.6068H163.141V65.0619C164.045 63.6187 165.21 62.4723 166.636 61.6225Z" fill="black"/>
<path d="M196.571 73.7609H180.17C180.256 75.5409 180.708 76.8232 181.526 77.6026C182.345 78.382 183.389 78.7691 184.66 78.7691C185.734 78.7691 186.623 78.5026 187.331 77.9646C188.039 77.4266 188.501 76.7327 188.727 75.8879H196.395C196.084 77.5573 195.406 79.0507 194.361 80.3631C193.317 81.6806 191.991 82.7114 190.379 83.4606C188.767 84.2098 186.975 84.587 184.996 84.587C182.681 84.587 180.627 84.0992 178.83 83.1237C177.032 82.1482 175.631 80.7403 174.611 78.8999C173.597 77.0595 173.085 74.9124 173.085 72.4485C173.085 69.9595 173.587 67.8023 174.586 65.977C175.591 64.1517 176.997 62.7538 178.804 61.7783C180.612 60.8028 182.676 60.3151 184.991 60.3151C187.336 60.3151 189.4 60.7978 191.178 61.7582C192.955 62.7186 194.336 64.0713 195.31 65.8111C196.285 67.5509 196.772 69.5522 196.772 71.8149C196.782 72.4033 196.712 73.0519 196.571 73.7609ZM188.2 67.2039C187.336 66.4245 186.272 66.0373 185.001 66.0373C183.675 66.0373 182.571 66.4346 181.697 67.224C180.823 68.0135 180.326 69.175 180.216 70.7037H189.455C189.48 69.1499 189.064 67.9833 188.2 67.2039Z" fill="black"/>
<path d="M214.196 61.537C215.497 62.3567 216.456 63.473 217.079 64.8909V60.6068H224.28V84.2803H217.079V79.9961C216.456 81.4091 215.497 82.5304 214.196 83.35C212.896 84.1697 211.344 84.582 209.536 84.582C207.588 84.582 205.84 84.0942 204.304 83.1187C202.762 82.1432 201.547 80.7353 200.658 78.8949C199.769 77.0545 199.322 74.9074 199.322 72.4435C199.322 69.9545 199.769 67.7974 200.658 65.9721C201.547 64.1468 202.762 62.7489 204.304 61.7734C205.845 60.7979 207.588 60.3101 209.536 60.3101C211.344 60.3101 212.896 60.7174 214.196 61.537ZM208.115 68.1996C207.166 69.2153 206.694 70.6333 206.694 72.4435C206.694 74.2538 207.166 75.6667 208.115 76.6875C209.059 77.7082 210.309 78.2161 211.866 78.2161C213.393 78.2161 214.643 77.6931 215.617 76.6472C216.591 75.6013 217.079 74.1984 217.079 72.4486C217.079 70.6685 216.591 69.2606 215.617 68.2248C214.643 67.1939 213.393 66.676 211.866 66.676C210.309 66.671 209.059 67.1839 208.115 68.1996Z" fill="black"/>
<path d="M242.67 78.0451V84.2803H239.406C236.639 84.2803 234.484 83.5964 232.943 82.2237C231.401 80.8509 230.633 78.5832 230.633 75.4153V66.7162H227.454V60.6068H230.633V54.794H237.879V60.6068H242.624V66.7162H237.879V75.541C237.879 76.4763 238.07 77.1249 238.451 77.492C238.833 77.8591 239.476 78.0451 240.38 78.0451H242.67Z" fill="black"/>
<path d="M247.734 51.6311C248.397 50.9573 249.271 50.6204 250.361 50.6204C251.45 50.6204 252.324 50.9573 252.987 51.6311C253.65 52.3049 253.981 53.1597 253.981 54.1905C253.981 55.1962 253.65 56.0359 252.987 56.7097C252.324 57.3835 251.445 57.7204 250.361 57.7204C249.271 57.7204 248.397 57.3835 247.734 56.7097C247.071 56.0359 246.74 55.1962 246.74 54.1905C246.74 53.1597 247.071 52.3049 247.734 51.6311ZM253.986 60.6067V84.2802H246.74V60.6067H253.986Z" fill="black"/>
<path d="M269.915 77.1953L275.042 60.6067H282.755L274.364 84.2802H265.38L256.989 60.6067H264.702L269.915 77.1953Z" fill="black"/>
<path d="M308.004 73.7609H291.604C291.689 75.5409 292.141 76.8232 292.96 77.6026C293.778 78.382 294.823 78.7691 296.093 78.7691C297.168 78.7691 298.057 78.5026 298.765 77.9646C299.473 77.4266 299.935 76.7327 300.161 75.8879H307.829C307.517 77.5573 306.839 79.0507 305.795 80.3631C304.75 81.6806 303.425 82.7114 301.813 83.4606C300.201 84.2098 298.408 84.587 296.43 84.587C294.115 84.587 292.061 84.0992 290.263 83.1237C288.465 82.1482 287.064 80.7403 286.045 78.8999C285.031 77.0595 284.518 74.9124 284.518 72.4485C284.518 69.9595 285.02 67.8023 286.02 65.977C287.024 64.1517 288.43 62.7538 290.238 61.7783C292.046 60.8028 294.11 60.3151 296.425 60.3151C298.77 60.3151 300.833 60.7978 302.611 61.7582C304.389 62.7186 305.77 64.0713 306.744 65.8111C307.718 67.5509 308.205 69.5522 308.205 71.8149C308.215 72.4033 308.145 73.0519 308.004 73.7609ZM299.633 67.2039C298.77 66.4245 297.705 66.0373 296.435 66.0373C295.109 66.0373 294.004 66.4346 293.13 67.224C292.257 68.0135 291.759 69.175 291.649 70.7037H300.889C300.914 69.1499 300.497 67.9833 299.633 67.2039Z" fill="black"/>
<path d="M40.7962 76.6422C27.0319 74.656 16.12 63.7344 14.1415 49.9517H0.251709V45.4412V72.3983C0.251709 82.4248 8.36663 90.5506 18.3797 90.5506H40.7962V76.6422Z" fill="#FF0064"/>
<path d="M76.4597 49.9517C74.4812 63.7344 63.5692 74.6611 49.805 76.6422V90.5506H72.2214C82.2345 90.5506 90.3494 82.4248 90.3494 72.3983V49.9517H76.4597Z" fill="#FFC832"/>
<path d="M0.251709 40.9307H14.1415C16.12 27.148 27.0319 16.2214 40.7962 14.2402V0.33181H18.3797C8.36663 0.33181 0.251709 8.45764 0.251709 18.4842V45.4412V40.9307Z" fill="#1DE4CF"/>
<path d="M49.805 14.2402C63.5692 16.2264 74.4812 27.148 76.4597 40.9307H90.3494V18.4842C90.3494 8.45764 82.2345 0.33181 72.2214 0.33181H49.805V14.2402Z" fill="#32C8FF"/>
<path d="M45.0714 54.4521C40.1 54.4521 36.0727 50.4143 36.0727 45.4412C36.0727 40.4632 40.105 36.4304 45.0714 36.4304C48.4007 36.4304 51.2982 38.2457 52.8549 40.9308H67.3673C65.2733 30.6478 56.1742 22.884 45.2974 22.884C32.8789 22.884 22.7704 33.0011 22.7704 45.4412C22.7704 57.8764 32.8739 67.9985 45.2974 67.9985C56.1742 67.9985 65.2783 60.2347 67.3673 49.9517H52.8549C51.2982 52.6419 48.4007 54.4521 45.0714 54.4521Z" fill="black"/>
</g>
<defs>
<clipPath id="clip0">
<rect width="308.327" height="91.0132" fill="white"/>
</clipPath>
</defs>
</svg>
